<svg aria-hidden="true" style="width:0;height:0;position:absolute;overflow:hidden" xmlns="http://www.w3.org/2000/svg"><defs><symbol id="icon-logo" viewBox="0 0 47 32"><path fill="#263238" style="fill:var(--color1,#263238)" d="m25.048 17.512-7.188 12.31-7.188-12.31h14.376zm1.926-1.1H8.739L17.86 32l9.113-15.588zM37.545 2.2l7.188 12.311H30.357L37.545 2.2zm0-2.2-9.121 15.588h18.243L37.546 0z"/><path fill="#4caf4f" style="fill:var(--color2,#4caf4f)" d="m0 0 7.648 13.788L16.005.346 0 0zM17.861 1.208l8.022 13.711H9.823l8.038-13.711zM27.949 17.912 35.979 32H19.537l8.162-14.088h.249zM29.687 17.058l7.858 13.872 7.967-13.872H29.686z"/></symbol><symbol id="icon-logo_text" viewBox="0 0 163 32"><path d="M24.775.973v29.62h-5.409L6.48 11.95h-.217v18.643H.001V.973h5.496l12.785 18.628h.26V.973h6.233zM39.957 31.027c-2.285 0-4.252-.463-5.901-1.389-1.639-.935-2.902-2.256-3.789-3.963-.887-1.716-1.331-3.746-1.331-6.089 0-2.285.444-4.291 1.331-6.017s2.136-3.071 3.746-4.035c1.62-.964 3.519-1.446 5.698-1.446 1.466 0 2.83.236 4.093.709a9.074 9.074 0 0 1 3.326 2.097c.955.935 1.697 2.112 2.227 3.529.53 1.408.795 3.056.795 4.946v1.692H31.394v-3.818h12.959c0-.887-.193-1.673-.579-2.357s-.921-1.22-1.605-1.605c-.675-.395-1.461-.593-2.357-.593-.935 0-1.764.217-2.488.651a4.56 4.56 0 0 0-1.678 1.721c-.405.713-.612 1.509-.622 2.386v3.63c0 1.099.202 2.049.607 2.849.415.8.998 1.417 1.75 1.851s1.644.651 2.676.651c.685 0 1.311-.096 1.88-.289s1.056-.482 1.461-.868.713-.858.926-1.417l5.698.376a7.777 7.777 0 0 1-1.779 3.587c-.887 1.012-2.034 1.803-3.442 2.372-1.398.559-3.013.839-4.845.839zM58.925 8.378l4.079 7.766 4.18-7.766h6.32l-6.436 11.107 6.61 11.108h-6.291l-4.382-7.68-4.31 7.68h-6.364l6.595-11.108-6.364-11.107h6.364zM86.404 31.027c-2.275 0-4.233-.482-5.872-1.446-1.629-.974-2.883-2.324-3.76-4.05-.868-1.726-1.302-3.712-1.302-5.959 0-2.276.439-4.271 1.316-5.988.887-1.726 2.145-3.071 3.775-4.035 1.63-.974 3.568-1.461 5.814-1.461 1.938 0 3.635.352 5.091 1.056s2.608 1.692 3.457 2.965c.848 1.273 1.316 2.767 1.403 4.483h-5.814c-.164-1.109-.598-2.001-1.302-2.676-.694-.685-1.605-1.027-2.733-1.027-.955 0-1.789.26-2.502.781-.704.511-1.253 1.258-1.649 2.242s-.593 2.174-.593 3.572c0 1.417.193 2.623.578 3.616.395.993.95 1.75 1.663 2.271s1.547.781 2.502.781c.704 0 1.335-.145 1.895-.434a3.658 3.658 0 0 0 1.403-1.258c.376-.559.622-1.229.738-2.01h5.814c-.096 1.697-.559 3.191-1.388 4.483-.82 1.282-1.952 2.285-3.399 3.008s-3.158 1.085-5.134 1.085zM110.395 31.027c-2.285 0-4.252-.463-5.901-1.389-1.639-.935-2.902-2.256-3.789-3.963-.887-1.716-1.331-3.746-1.331-6.089 0-2.285.444-4.291 1.331-6.017s2.136-3.071 3.746-4.035c1.62-.964 3.519-1.446 5.698-1.446 1.465 0 2.83.236 4.093.709a9.074 9.074 0 0 1 3.326 2.097c.955.935 1.697 2.112 2.227 3.529.53 1.408.795 3.056.795 4.946v1.692h-18.758v-3.818h12.959c0-.887-.193-1.673-.578-2.357s-.921-1.22-1.605-1.605c-.675-.395-1.461-.593-2.357-.593-.935 0-1.764.217-2.488.651a4.567 4.567 0 0 0-1.678 1.721c-.405.713-.612 1.509-.622 2.386v3.63c0 1.099.202 2.049.607 2.849.415.8.998 1.417 1.75 1.851s1.644.651 2.676.651c.684 0 1.311-.096 1.88-.289s1.056-.482 1.461-.868.713-.858.926-1.417l5.698.376a7.777 7.777 0 0 1-1.779 3.587c-.887 1.012-2.034 1.803-3.442 2.372-1.398.559-3.013.839-4.845.839zM130.773 17.75v12.843h-6.161V8.378h5.872v3.919h.26a6.198 6.198 0 0 1 2.473-3.066c1.157-.762 2.56-1.143 4.209-1.143 1.543 0 2.888.337 4.035 1.012s2.039 1.639 2.676 2.893c.636 1.244.954 2.729.954 4.455v14.145h-6.161V17.547c.01-1.359-.337-2.42-1.041-3.182-.704-.771-1.673-1.157-2.907-1.157-.829 0-1.562.178-2.198.535-.627.357-1.118.877-1.475 1.562-.347.675-.525 1.49-.535 2.444zM161.763 8.378v4.628h-13.377V8.378h13.377zm-10.34-5.322h6.16v20.711c0 .569.087 1.012.26 1.331.175.308.415.525.724.651.317.125.684.188 1.098.188.289 0 .579-.024.868-.072.289-.058.511-.101.665-.13l.969 4.585c-.308.096-.742.207-1.3.333-.56.135-1.239.217-2.039.246-1.485.058-2.787-.14-3.905-.593-1.108-.453-1.972-1.157-2.589-2.112s-.921-2.16-.911-3.616V3.057z"/></symbol><symbol id="icon-full_logo" viewBox="0 0 207 32"><path fill="#263238" style="fill:var(--color1,#263238)" d="m25.048 17.512-7.188 12.31-7.188-12.31h14.376zm1.926-1.1H8.739L17.86 32l9.113-15.588zM37.545 2.2l7.188 12.311H30.357L37.545 2.2zm0-2.2-9.121 15.588h18.243L37.546 0z"/><path fill="#4caf4f" style="fill:var(--color2,#4caf4f)" d="m0 0 7.648 13.788L16.005.346 0 0zM17.861 1.208l8.022 13.711H9.823l8.038-13.711zM27.949 17.912 35.979 32H19.537l8.162-14.088h.249zM29.687 17.058l7.858 13.872 7.967-13.872H29.686z"/><path fill="#263238" style="fill:var(--color1,#263238)" d="M80.044 2.225v27.152h-4.958L63.273 12.288h-.199v17.089h-5.741V2.225h5.038l11.72 17.076h.239V2.225h5.714zM93.961 29.775c-2.095 0-3.898-.424-5.409-1.273-1.503-.857-2.66-2.068-3.473-3.633-.813-1.573-1.22-3.434-1.22-5.581 0-2.095.407-3.933 1.22-5.515s1.958-2.815 3.434-3.699c1.485-.884 3.226-1.326 5.223-1.326 1.343 0 2.594.217 3.752.65a8.318 8.318 0 0 1 3.049 1.922c.875.857 1.556 1.936 2.042 3.235.486 1.29.729 2.802.729 4.534v1.551H86.113v-3.5h11.879c0-.813-.177-1.533-.53-2.161s-.844-1.118-1.472-1.472c-.619-.362-1.339-.544-2.161-.544-.857 0-1.617.199-2.28.597a4.183 4.183 0 0 0-1.538 1.578 4.458 4.458 0 0 0-.57 2.187v3.328c0 1.008.186 1.878.557 2.612.38.734.915 1.299 1.604 1.697s1.507.597 2.453.597c.628 0 1.202-.088 1.723-.265s.968-.442 1.339-.795c.371-.354.654-.787.849-1.299l5.223.345a7.133 7.133 0 0 1-1.631 3.288c-.813.928-1.865 1.653-3.155 2.174-1.282.513-2.762.769-4.441.769zM111.348 9.013l3.739 7.119 3.831-7.119h5.793l-5.9 10.182 6.059 10.182h-5.767l-4.017-7.04-3.951 7.04h-5.833l6.045-10.182-5.833-10.182h5.833zM136.537 29.775c-2.085 0-3.88-.442-5.383-1.326-1.494-.893-2.643-2.13-3.447-3.712-.795-1.582-1.193-3.403-1.193-5.462 0-2.086.402-3.915 1.206-5.489.813-1.582 1.967-2.815 3.46-3.699 1.494-.893 3.271-1.339 5.329-1.339 1.777 0 3.332.323 4.667.968s2.391 1.551 3.169 2.718c.777 1.167 1.205 2.537 1.285 4.11h-5.329c-.151-1.016-.548-1.834-1.193-2.453-.636-.628-1.472-.941-2.505-.941-.875 0-1.64.239-2.293.716-.645.468-1.149 1.153-1.512 2.055s-.544 1.993-.544 3.275c0 1.299.177 2.404.53 3.314.362.91.871 1.604 1.525 2.081.653.477 1.419.716 2.293.716.645 0 1.224-.133 1.736-.398.521-.265.951-.65 1.287-1.153.344-.513.569-1.127.676-1.843h5.329c-.088 1.555-.512 2.925-1.272 4.11-.752 1.175-1.791 2.095-3.116 2.757s-2.895.994-4.707.994zM158.528 29.775c-2.095 0-3.897-.424-5.409-1.273-1.501-.857-2.66-2.068-3.473-3.633-.812-1.573-1.219-3.434-1.219-5.581 0-2.095.407-3.933 1.219-5.515.813-1.582 1.959-2.815 3.435-3.699 1.484-.884 3.225-1.326 5.223-1.326 1.344 0 2.595.217 3.752.65a8.31 8.31 0 0 1 3.049 1.922c.875.857 1.556 1.936 2.041 3.235.487 1.29.729 2.802.729 4.534v1.551H150.68v-3.5h11.879c0-.813-.177-1.533-.531-2.161s-.844-1.118-1.471-1.472c-.619-.362-1.34-.544-2.161-.544-.857 0-1.617.199-2.28.597a4.185 4.185 0 0 0-1.539 1.578 4.447 4.447 0 0 0-.569 2.187v3.328c0 1.008.185 1.878.556 2.612.38.734.915 1.299 1.604 1.697s1.508.597 2.453.597c.628 0 1.201-.088 1.724-.265a3.596 3.596 0 0 0 1.339-.795c.371-.354.653-.787.848-1.299l5.224.345a7.133 7.133 0 0 1-1.631 3.288c-.813.928-1.865 1.653-3.156 2.174-1.281.513-2.761.769-4.441.769zM177.208 17.604v11.773h-5.648V9.013h5.383v3.593h.239a5.687 5.687 0 0 1 2.268-2.811c1.06-.698 2.347-1.047 3.857-1.047 1.415 0 2.647.309 3.699.928s1.869 1.503 2.453 2.652c.583 1.14.875 2.501.875 4.083v12.966h-5.648V17.419c.009-1.246-.309-2.218-.955-2.917-.645-.707-1.533-1.061-2.664-1.061-.76 0-1.432.163-2.016.491-.575.327-1.025.804-1.352 1.432-.317.619-.481 1.366-.491 2.241zM205.616 9.013v4.242h-12.263V9.013h12.263zm-9.479-4.879h5.647v18.985c0 .521.08.928.239 1.22.16.283.38.482.664.597.291.115.627.172 1.007.172.265 0 .531-.022.796-.066a46.1 46.1 0 0 1 .609-.119l.888 4.203c-.283.088-.68.19-1.192.305-.513.124-1.136.199-1.869.225-1.361.053-2.555-.128-3.58-.544-1.016-.415-1.808-1.061-2.373-1.936s-.844-1.98-.835-3.314V4.135z"/></symbol></defs></svg>