<svg aria-hidden="true" style="width:0;height:0;position:absolute;overflow:hidden" xmlns="http://www.w3.org/2000/svg"><defs><symbol id="icon-logo" viewBox="0 0 47 32"><path fill="#263238" style="fill:var(--color1,#263238)" d="m25.048 17.512-7.188 12.31-7.188-12.31h14.376zm1.926-1.1H8.739L17.86 32l9.113-15.588zM37.545 2.2l7.188 12.311H30.357L37.545 2.2zm0-2.2-9.121 15.588h18.243L37.546 0z"/><path fill="#4caf4f" style="fill:var(--color2,#4caf4f)" d="m0 0 7.648 13.788L16.005.346 0 0zM17.861 1.208l8.022 13.711H9.823l8.038-13.711zM27.949 17.912 35.979 32H19.537l8.162-14.088h.249zM29.687 17.058l7.858 13.872 7.967-13.872H29.686z"/></symbol><symbol id="icon-logo_text" viewBox="0 0 163 32"><path d="M24.775.973v29.62h-5.409L6.48 11.95h-.217v18.643H.001V.973h5.496l12.785 18.628h.26V.973h6.233zM39.957 31.027c-2.285 0-4.252-.463-5.901-1.389-1.639-.935-2.902-2.256-3.789-3.963-.887-1.716-1.331-3.746-1.331-6.089 0-2.285.444-4.291 1.331-6.017s2.136-3.071 3.746-4.035c1.62-.964 3.519-1.446 5.698-1.446 1.466 0 2.83.236 4.093.709a9.074 9.074 0 0 1 3.326 2.097c.955.935 1.697 2.112 2.227 3.529.53 1.408.795 3.056.795 4.946v1.692H31.394v-3.818h12.959c0-.887-.193-1.673-.579-2.357s-.921-1.22-1.605-1.605c-.675-.395-1.461-.593-2.357-.593-.935 0-1.764.217-2.488.651a4.56 4.56 0 0 0-1.678 1.721c-.405.713-.612 1.509-.622 2.386v3.63c0 1.099.202 2.049.607 2.849.415.8.998 1.417 1.75 1.851s1.644.651 2.676.651c.685 0 1.311-.096 1.88-.289s1.056-.482 1.461-.868.713-.858.926-1.417l5.698.376a7.777 7.777 0 0 1-1.779 3.587c-.887 1.012-2.034 1.803-3.442 2.372-1.398.559-3.013.839-4.845.839zM58.925 8.378l4.079 7.766 4.18-7.766h6.32l-6.436 11.107 6.61 11.108h-6.291l-4.382-7.68-4.31 7.68h-6.364l6.595-11.108-6.364-11.107h6.364zM86.404 31.027c-2.275 0-4.233-.482-5.872-1.446-1.629-.974-2.883-2.324-3.76-4.05-.868-1.726-1.302-3.712-1.302-5.959 0-2.276.439-4.271 1.316-5.988.887-1.726 2.145-3.071 3.775-4.035 1.63-.974 3.568-1.461 5.814-1.461 1.938 0 3.635.352 5.091 1.056s2.608 1.692 3.457 2.965c.848 1.273 1.316 2.767 1.403 4.483h-5.814c-.164-1.109-.598-2.001-1.302-2.676-.694-.685-1.605-1.027-2.733-1.027-.955 0-1.789.26-2.502.781-.704.511-1.253 1.258-1.649 2.242s-.593 2.174-.593 3.572c0 1.417.193 2.623.578 3.616.395.993.95 1.75 1.663 2.271s1.547.781 2.502.781c.704 0 1.335-.145 1.895-.434a3.658 3.658 0 0 0 1.403-1.258c.376-.559.622-1.229.738-2.01h5.814c-.096 1.697-.559 3.191-1.388 4.483-.82 1.282-1.952 2.285-3.399 3.008s-3.158 1.085-5.134 1.085zM110.395 31.027c-2.285 0-4.252-.463-5.901-1.389-1.639-.935-2.902-2.256-3.789-3.963-.887-1.716-1.331-3.746-1.331-6.089 0-2.285.444-4.291 1.331-6.017s2.136-3.071 3.746-4.035c1.62-.964 3.519-1.446 5.698-1.446 1.465 0 2.83.236 4.093.709a9.074 9.074 0 0 1 3.326 2.097c.955.935 1.697 2.112 2.227 3.529.53 1.408.795 3.056.795 4.946v1.692h-18.758v-3.818h12.959c0-.887-.193-1.673-.578-2.357s-.921-1.22-1.605-1.605c-.675-.395-1.461-.593-2.357-.593-.935 0-1.764.217-2.488.651a4.567 4.567 0 0 0-1.678 1.721c-.405.713-.612 1.509-.622 2.386v3.63c0 1.099.202 2.049.607 2.849.415.8.998 1.417 1.75 1.851s1.644.651 2.676.651c.684 0 1.311-.096 1.88-.289s1.056-.482 1.461-.868.713-.858.926-1.417l5.698.376a7.777 7.777 0 0 1-1.779 3.587c-.887 1.012-2.034 1.803-3.442 2.372-1.398.559-3.013.839-4.845.839zM130.773 17.75v12.843h-6.161V8.378h5.872v3.919h.26a6.198 6.198 0 0 1 2.473-3.066c1.157-.762 2.56-1.143 4.209-1.143 1.543 0 2.888.337 4.035 1.012s2.039 1.639 2.676 2.893c.636 1.244.954 2.729.954 4.455v14.145h-6.161V17.547c.01-1.359-.337-2.42-1.041-3.182-.704-.771-1.673-1.157-2.907-1.157-.829 0-1.562.178-2.198.535-.627.357-1.118.877-1.475 1.562-.347.675-.525 1.49-.535 2.444zM161.763 8.378v4.628h-13.377V8.378h13.377zm-10.34-5.322h6.16v20.711c0 .569.087 1.012.26 1.331.175.308.415.525.724.651.317.125.684.188 1.098.188.289 0 .579-.024.868-.072.289-.058.511-.101.665-.13l.969 4.585c-.308.096-.742.207-1.3.333-.56.135-1.239.217-2.039.246-1.485.058-2.787-.14-3.905-.593-1.108-.453-1.972-1.157-2.589-2.112s-.921-2.16-.911-3.616V3.057z"/></symbol><symbol id="icon-full_logo" viewBox="0 0 207 32"><path fill="#263238" style="fill:var(--color1,#263238)" d="m25.048 17.512-7.188 12.31-7.188-12.31h14.376zm1.926-1.1H8.739L17.86 32l9.113-15.588zM37.545 2.2l7.188 12.311H30.357L37.545 2.2zm0-2.2-9.121 15.588h18.243L37.546 0z"/><path fill="#4caf4f" style="fill:var(--color2,#4caf4f)" d="m0 0 7.648 13.788L16.005.346 0 0zM17.861 1.208l8.022 13.711H9.823l8.038-13.711zM27.949 17.912 35.979 32H19.537l8.162-14.088h.249zM29.687 17.058l7.858 13.872 7.967-13.872H29.686z"/><path fill="#263238" style="fill:var(--color1,#263238)" d="M80.044 2.225v27.152h-4.958L63.273 12.288h-.199v17.089h-5.741V2.225h5.038l11.72 17.076h.239V2.225h5.714zM93.961 29.775c-2.095 0-3.898-.424-5.409-1.273-1.503-.857-2.66-2.068-3.473-3.633-.813-1.573-1.22-3.434-1.22-5.581 0-2.095.407-3.933 1.22-5.515s1.958-2.815 3.434-3.699c1.485-.884 3.226-1.326 5.223-1.326 1.343 0 2.594.217 3.752.65a8.318 8.318 0 0 1 3.049 1.922c.875.857 1.556 1.936 2.042 3.235.486 1.29.729 2.802.729 4.534v1.551H86.113v-3.5h11.879c0-.813-.177-1.533-.53-2.161s-.844-1.118-1.472-1.472c-.619-.362-1.339-.544-2.161-.544-.857 0-1.617.199-2.28.597a4.183 4.183 0 0 0-1.538 1.578 4.458 4.458 0 0 0-.57 2.187v3.328c0 1.008.186 1.878.557 2.612.38.734.915 1.299 1.604 1.697s1.507.597 2.453.597c.628 0 1.202-.088 1.723-.265s.968-.442 1.339-.795c.371-.354.654-.787.849-1.299l5.223.345a7.133 7.133 0 0 1-1.631 3.288c-.813.928-1.865 1.653-3.155 2.174-1.282.513-2.762.769-4.441.769zM111.348 9.013l3.739 7.119 3.831-7.119h5.793l-5.9 10.182 6.059 10.182h-5.767l-4.017-7.04-3.951 7.04h-5.833l6.045-10.182-5.833-10.182h5.833zM136.537 29.775c-2.085 0-3.88-.442-5.383-1.326-1.494-.893-2.643-2.13-3.447-3.712-.795-1.582-1.193-3.403-1.193-5.462 0-2.086.402-3.915 1.206-5.489.813-1.582 1.967-2.815 3.46-3.699 1.494-.893 3.271-1.339 5.329-1.339 1.777 0 3.332.323 4.667.968s2.391 1.551 3.169 2.718c.777 1.167 1.205 2.537 1.285 4.11h-5.329c-.151-1.016-.548-1.834-1.193-2.453-.636-.628-1.472-.941-2.505-.941-.875 0-1.64.239-2.293.716-.645.468-1.149 1.153-1.512 2.055s-.544 1.993-.544 3.275c0 1.299.177 2.404.53 3.314.362.91.871 1.604 1.525 2.081.653.477 1.419.716 2.293.716.645 0 1.224-.133 1.736-.398.521-.265.951-.65 1.287-1.153.344-.513.569-1.127.676-1.843h5.329c-.088 1.555-.512 2.925-1.272 4.11-.752 1.175-1.791 2.095-3.116 2.757s-2.895.994-4.707.994zM158.528 29.775c-2.095 0-3.897-.424-5.409-1.273-1.501-.857-2.66-2.068-3.473-3.633-.812-1.573-1.219-3.434-1.219-5.581 0-2.095.407-3.933 1.219-5.515.813-1.582 1.959-2.815 3.435-3.699 1.484-.884 3.225-1.326 5.223-1.326 1.344 0 2.595.217 3.752.65a8.31 8.31 0 0 1 3.049 1.922c.875.857 1.556 1.936 2.041 3.235.487 1.29.729 2.802.729 4.534v1.551H150.68v-3.5h11.879c0-.813-.177-1.533-.531-2.161s-.844-1.118-1.471-1.472c-.619-.362-1.34-.544-2.161-.544-.857 0-1.617.199-2.28.597a4.185 4.185 0 0 0-1.539 1.578 4.447 4.447 0 0 0-.569 2.187v3.328c0 1.008.185 1.878.556 2.612.38.734.915 1.299 1.604 1.697s1.508.597 2.453.597c.628 0 1.201-.088 1.724-.265a3.596 3.596 0 0 0 1.339-.795c.371-.354.653-.787.848-1.299l5.224.345a7.133 7.133 0 0 1-1.631 3.288c-.813.928-1.865 1.653-3.156 2.174-1.281.513-2.761.769-4.441.769zM177.208 17.604v11.773h-5.648V9.013h5.383v3.593h.239a5.687 5.687 0 0 1 2.268-2.811c1.06-.698 2.347-1.047 3.857-1.047 1.415 0 2.647.309 3.699.928s1.869 1.503 2.453 2.652c.583 1.14.875 2.501.875 4.083v12.966h-5.648V17.419c.009-1.246-.309-2.218-.955-2.917-.645-.707-1.533-1.061-2.664-1.061-.76 0-1.432.163-2.016.491-.575.327-1.025.804-1.352 1.432-.317.619-.481 1.366-.491 2.241zM205.616 9.013v4.242h-12.263V9.013h12.263zm-9.479-4.879h5.647v18.985c0 .521.08.928.239 1.22.16.283.38.482.664.597.291.115.627.172 1.007.172.265 0 .531-.022.796-.066a46.1 46.1 0 0 1 .609-.119l.888 4.203c-.283.088-.68.19-1.192.305-.513.124-1.136.199-1.869.225-1.361.053-2.555-.128-3.58-.544-1.016-.415-1.808-1.061-2.373-1.936s-.844-1.98-.835-3.314V4.135z"/></symbol><symbol id="icon-Client_1" viewBox="0 0 32 32"><path d="M9.333 2.667A6.667 6.667 0 0 1 16 9.334V2.667h6.667a6.667 6.667 0 0 1 0 13.334 6.667 6.667 0 0 1 4.739 11.356l-.025.025-.022.022a6.648 6.648 0 0 1-4.692 1.931A6.644 6.644 0 0 1 18 27.429l-.047-.046-.044-.044A6.644 6.644 0 0 1 16 22.669a6.667 6.667 0 0 1-13.334 0v-6.667h6.667a6.667 6.667 0 0 1 0-13.334zm5.334 6.666a5.333 5.333 0 0 1-5.333 5.333V3.999a5.333 5.333 0 0 1 5.333 5.333zM28 22.667a5.333 5.333 0 1 0-10.666 0h10.667zM4 17.333v5.333a5.333 5.333 0 1 0 10.666 0v-5.333H3.999zm13.333-2.666V4h5.333a5.333 5.333 0 1 1 0 10.666h-5.333z"/></symbol><symbol id="icon-Client_2" viewBox="0 0 32 32"><path fill="#3b4158" style="fill:var(--color3,#3b4158)" d="m9.324 9.308.009-.009c3.682-3.645 9.651-3.645 13.333 0l.015.015 6.652 6.585a18.863 18.863 0 0 1-4.511 3.298 9.27 9.27 0 0 1-2.156 3.301c-3.682 3.645-9.651 3.645-13.333 0a9.301 9.301 0 0 1-2.156-3.301 18.863 18.863 0 0 1-4.511-3.298l6.657-6.59zM22.03 20.385a19.037 19.037 0 0 1-12.06 0c.21.276.442.541.696.792 2.946 2.916 7.721 2.916 10.667 0 .254-.251.486-.516.696-.792zm-11.227-9.899a9.513 9.513 0 0 0 10.394 0c-2.909-2.74-7.485-2.74-10.393 0z"/></symbol><symbol id="icon-Client_3" viewBox="0 0 37 32"><path style="fill:var(--color4,#000)" d="M36.664 13.011a.295.295 0 0 0 0-.084.194.194 0 0 0 0-.068l-.272-1.955a1.258 1.258 0 0 0-.303-.631l-.047-.053-.085-.084-4.702-3.971.132.129c-.108-.127-.243-.228-.396-.296s-.32-.102-.488-.099h-1.428a1.046 1.046 0 0 0-.644.205 1.124 1.124 0 0 0-.667-.205h-1.428c-.187-.003-.372.043-.536.132s-.3.22-.396.378a1.048 1.048 0 0 0-.155.761l.179 1.232a.783.783 0 0 0-.388-.099h-6.914c-.248.002-.49.073-.698.205-.201.123-.363.3-.466.51l-.535-.449a1.122 1.122 0 0 0-.776-.289H4.803a1.446 1.446 0 0 0-.706.198 1.286 1.286 0 0 0-.598.761L.054 20.536a.97.97 0 0 0 .295 1.065c.039.033.081.063.124.091 0 0-.07-.046-.109-.084l4.702 3.979c.199.18.459.28.729.281h10.934c.25-.006.493-.077.706-.205a1.14 1.14 0 0 0 .318-.251l.039-.053.062-.076.047-.084.512.434c.196.172.45.267.714.266h10.957a1.484 1.484 0 0 0 1.024-.456l.039-.053.062-.076a.907.907 0 0 0 .085-.152.844.844 0 0 0 .062-.145l3.143-10.316v-.091a.479.479 0 0 0 0-.107v-.068a.2.2 0 0 0 0-.069.878.878 0 0 0 0-.145h1.009c.088.008.176.008.264 0h.07a.863.863 0 0 0 .163-.068h.078l.14-.106.062-.046.109-.137v-.046l.078-.129a.242.242 0 0 1 0-.076.062.062 0 0 1 0-.038c.016-.045.029-.09.039-.137a.09.09 0 0 1 0-.046.194.194 0 0 1 0-.068s.155-.297.155-.312z"/><path fill="#fff" style="fill:var(--color5,#fff)" d="M15.969 9.146a.266.266 0 0 1 .069.297L12.6 20.732a.53.53 0 0 1-.248.289.666.666 0 0 1-.318.107H1.108a.377.377 0 0 1-.248-.107c-.04-.036-.067-.083-.08-.134s-.009-.105.01-.155L4.235 9.443a.525.525 0 0 1 .241-.297.698.698 0 0 1 .318-.099H15.72a.366.366 0 0 1 .248.099zm-5.704 9.312 2.056-6.74H6.563l-2.049 6.74h5.75zm16.133-9.197a.378.378 0 0 0 .302.13h1.42c.054 0 .107-.013.155-.038s.088-.062.117-.107a.312.312 0 0 0 .054-.243l-.279-2.008a.63.63 0 0 0-.14-.251.378.378 0 0 0-.302-.13h-1.42c-.054 0-.107.013-.155.038s-.088.062-.117.107c-.054.107-.078.175-.054.236l.287 2.008a.465.465 0 0 0 .132.259zm4.508-2.283a.63.63 0 0 0-.14-.251.365.365 0 0 0-.295-.129h-1.428c-.053-.002-.106.011-.152.037s-.085.063-.112.108a.312.312 0 0 0-.062.236l.287 2.008a.518.518 0 0 0 .132.259.39.39 0 0 0 .303.129h1.428a.301.301 0 0 0 .264-.145.283.283 0 0 0 .054-.244l-.279-2.008zm-5.758 3.043-.14-.989h-6.883a.616.616 0 0 0-.303.099c-.057.031-.107.073-.146.124s-.066.11-.079.173l-.574 1.887a.253.253 0 0 0 .047.289.38.38 0 0 0 .241.099h8.365l-2.056 6.74h-8.342a.59.59 0 0 0-.303.091.515.515 0 0 0-.225.297l-.582 1.887a.28.28 0 0 0 .055.289.365.365 0 0 0 .241.107h10.957a.704.704 0 0 0 .318-.107.51.51 0 0 0 .241-.289l3.15-10.316h-3.546a.419.419 0 0 1-.302-.122.552.552 0 0 1-.132-.243v-.015z"/></symbol><symbol id="icon-Client_4" viewBox="0 0 32 32"><path fill="#3a3b7b" style="fill:var(--color6,#3a3b7b)" d="M29.998 8.941c0 .023 0 .051-.006.068-.029.22-.029.44-.012.665.012.056.023.113.07.158.076.085.194.068.241-.034a.223.223 0 0 0 .012-.152 2.766 2.766 0 0 1-.076-.659v-.045c.065-.006.123-.011.176-.011.041-.006.076-.011.106-.028.088-.045.088-.141-.006-.186a.296.296 0 0 0-.123-.023c-.147.006-.294.006-.44.006-.053 0-.106.006-.159.011-.029.006-.065.006-.088.023-.041.017-.065.045-.065.085.006.039.023.062.065.079a.138.138 0 0 0 .082.023c.07.006.147.017.223.023zm1.614.259c0 .006.006.011.006.011.024.152.047.299.065.445.006.051.012.096.047.135.076.096.194.085.247-.017a.244.244 0 0 0 .018-.158c-.035-.169-.053-.338-.088-.502a3.378 3.378 0 0 0-.082-.287.137.137 0 0 0-.129-.101.146.146 0 0 0-.153.073.692.692 0 0 0-.088.141c-.041.09-.076.18-.123.265a.158.158 0 0 1-.024.056.08.08 0 0 0-.012-.017c-.076-.141-.147-.282-.223-.417a.097.097 0 0 1-.023-.034c-.035-.051-.076-.079-.141-.079a.172.172 0 0 0-.135.09c-.012.023-.012.039-.018.062-.023.18-.053.361-.076.541a2.583 2.583 0 0 0-.018.304.105.105 0 0 0 .012.073.106.106 0 0 0 .094.079c.059.006.1-.011.117-.056.018-.034.023-.062.029-.09.024-.101.041-.197.059-.293.012-.056.018-.101.035-.163a.456.456 0 0 0 .035.056c.053.068.106.135.17.192.065.045.117.039.17-.011l.029-.028c.053-.079.117-.158.17-.237.012-.011.018-.023.029-.034zM18.083 9.052c-.041.107-.049.184-.03.248.021.087.075.116.148.094.69-.164 2.202.301 2.762.43.132.027.239-.136.149-.283-.132-.142-1.643-.75-2.22-.783-.226-.012-.63-.068-.81.294zM23.994 7.083c.073.041.115.08.135.123.03.057.014.096-.037.116-.456.214-1.063 1.133-1.307 1.45-.059.073-.196.031-.217-.089.004-.136.542-1.133.842-1.405.118-.106.313-.314.584-.195zM20.363 6.63c.088-.064.18-.086.227-.045.688.565 1.053 1.459 1.278 2.277a.117.117 0 0 1 .002.075c-.003.024-.021.05-.051.07-.031.022-.059.029-.071.01-.301-.394-2.023-1.925-1.385-2.387zM5.797 16.419c.165-.118.344-.216.534-.292.198-.054.41-.045.603.026s.356.201.465.369c.098.168.136.361.109.552s-.118.367-.258.504a1.803 1.803 0 0 1-.368.287c-.603.374-1.212.727-1.82 1.101a2.96 2.96 0 0 1-.395.251 1.041 1.041 0 0 1-1.254-.282 1.997 1.997 0 0 1-.267-.415c-.576-1.163-1.174-2.321-1.729-3.504-.256-.512-.464-1.101-.667-1.67-.088-.165-.105-.357-.048-.534s.184-.326.354-.415c.17-.089.369-.11.555-.061s.345.168.442.328c.299.381.563.785.79 1.209.576 1.025 1.126 2.049 1.681 3.043.032.055.068.108.107.159a5.238 5.238 0 0 0 1.169-.656zM11.757 16.062c-1.318 1.48-3.528 1.106-4.638-.799-.79-1.352-.929-3.586.79-4.995a2.884 2.884 0 0 1 1.276-.584c.576-.079 1.163.018 1.678.279s.931.67 1.188 1.171c.939 1.639.806 3.729-.294 4.928zm-.534-3.453a1.85 1.85 0 0 0-.795-.973 1.165 1.165 0 0 0-1.425.088c-.763.651-.923 2.193-.368 3.11.071.15.175.282.305.389a1.205 1.205 0 0 0 1.424.077c.414-.308.717-.732.868-1.213s.142-.995-.025-1.471l.016-.005zM17.137 13.254a1.067 1.067 0 0 1-.79-.143.767.767 0 0 1-.384-.528.732.732 0 0 1 .181-.619.98.98 0 0 1 .534-.343 8.008 8.008 0 0 1 1.708-.282.981.981 0 0 1 .716.199.902.902 0 0 1 .352.63c.167.601.185 1.23.053 1.839-.48 1.967-2.135 2.643-3.992 2.013a2.756 2.756 0 0 1-1.313-.902 4.165 4.165 0 0 1-.923-1.747c-.13-.573-.116-1.168.042-1.735s.455-1.089.866-1.523c.39-.472.896-.843 1.473-1.081a1.726 1.726 0 0 1 1.196-.154.53.53 0 0 1 .376.374.502.502 0 0 1-.157.497 2.682 2.682 0 0 1-.432.307 4.39 4.39 0 0 0-1.217 1.101c-.216.283-.365.608-.436.953s-.063.699.025 1.04a2.3 2.3 0 0 0 .769 1.194c1.174 1.025 2.701.036 2.434-1.363-.39.092-.731.19-1.078.272zM24.311 16.144c-1.735 1.025-3.71 0-4.142-2.152-.315-1.537.283-3.688 2.375-4.508a2.943 2.943 0 0 1 1.404-.174c.572.1 1.096.371 1.499.772s.665.915.748 1.467c.352 1.829-.448 3.781-1.884 4.595zm.603-3.448a1.766 1.766 0 0 0-.443-1.163c-.153-.201-.373-.346-.624-.408s-.517-.04-.753.065c-.939.389-1.601 1.803-1.361 2.843.018.163.074.321.162.461a1.163 1.163 0 0 0 .821.531c.169.025.342.016.506-.029.497-.166.926-.478 1.23-.89s.465-.905.462-1.41zM27.949 16.574c-.026.187-.129.357-.286.472a.766.766 0 0 1-1.042-.134.691.691 0 0 1 .14-1 .766.766 0 0 1 1.042.134c.12.15.172.34.146.528zm-.464-6.911c.102-.149.25-.262.425-.323s.364-.066.542-.015c.18.043.34.145.452.288s.169.318.162.496c-.024.286-.068.57-.133.85-.176.948-.347 1.895-.534 2.833-.085.374-.197.733-.32 1.112a.793.793 0 0 1-.208.313.538.538 0 0 1-.481.173.542.542 0 0 1-.411-.297 1.147 1.147 0 0 1-.101-.446c0-.635 0-1.276.043-1.916.073-.914.215-1.821.427-2.715a1 1 0 0 1 .139-.338v-.015zM3.542 20.69a.686.686 0 0 0-.05.43c.021.191.066.379.134.559.086.221.181.439.299.709l.085.195c.159.365.359.831.625 1.506.075.192.142.385.21.58l.082.236c.1.281.273.534.501.734.097.11.226.19.37.23.147.041.304.038.449-.007s.274-.132.367-.249a.717.717 0 0 0 .157-.396c.06-.28.039-.57-.059-.84a14.173 14.173 0 0 0-.538-1.336l-.001-.002a85.76 85.76 0 0 0-1.037-2.052l-.003-.005a1.774 1.774 0 0 0-.403-.47.725.725 0 0 0-1.191.179zM8.682 18.999a3.908 3.908 0 0 0-1.615-.056c-.415.039-.824.131-1.107.313-.144.093-.261.212-.326.363s-.074.326-.02.52c.098.355.224.7.351 1.044l.02.056v.001c.38.999.764 1.995 1.151 2.988.045.156.109.307.19.45l.002.003c.107.177.245.335.407.468a.637.637 0 0 0 .62.127.616.616 0 0 0 .272-.181.575.575 0 0 0 .134-.285 1.38 1.38 0 0 0-.064-.856c-.035-.092-.062-.185-.091-.284l-.03-.1c.887-.333 1.83-.78 2.162-1.82.13-.36.141-.749.031-1.115s-.335-.691-.645-.929A3.823 3.823 0 0 0 8.681 19zm-1.463 1.276.053-.014a2.507 2.507 0 0 1 1.663.327c.218.146.308.307.323.463.016.16-.045.334-.167.501a1.625 1.625 0 0 1-1.031.615c-.277-.612-.558-1.25-.84-1.893zM12.199 17.878c.628-.278 1.407-.327 2.016-.131.153.043.286.136.377.262s.131.278.117.43a.614.614 0 0 1-.277.506.673.673 0 0 1-.595.076l-.007-.003-.007-.004a.735.735 0 0 0-.159-.057l-.004-.001c-.428-.109-.833.072-.98.294-.07.106-.079.213-.021.31.063.104.217.221.529.305.086.023.174.044.263.066.246.061.503.125.75.213h.001c1.143.417 1.568 1.281 1.422 2.094-.144.804-.843 1.535-1.895 1.708-.383.081-.781.066-1.155-.046s-.714-.316-.981-.592l-.007-.007a.823.823 0 0 1-.167-.356c-.023-.117-.011-.238.035-.349s.123-.205.223-.275a.7.7 0 0 1 .749-.056c.117.054.225.123.322.205l.002.001a.67.67 0 0 0 .58.154c.203-.037.393-.152.516-.305s.171-.332.113-.507c-.058-.176-.234-.374-.62-.539a3.304 3.304 0 0 0-.314-.106l-.089-.026a8.398 8.398 0 0 1-.244-.074l-.166-.053a4.422 4.422 0 0 1-.437-.154 1.503 1.503 0 0 1-.755-.548 1.403 1.403 0 0 1-.264-.876c.001-.759.499-1.283 1.131-1.563zM20.166 17.797a.853.853 0 0 0-.776.031.8.8 0 0 0-.282.269.833.833 0 0 0-.128.638c.023.14.048.277.073.411.041.223.081.44.108.662l.001.006c.06.348.092.7.094 1.053v.005c.021.381-.115.755-.377 1.042l-.004.005c-.085.105-.199.185-.329.231s-.271.057-.407.031-.262-.088-.363-.179a.72.72 0 0 1-.211-.336 3.491 3.491 0 0 1-.134-.829l.133-2.033.007-.081c.005-.062.01-.125.012-.183a.94.94 0 0 0-.021-.259c-.021-.086-.062-.168-.135-.237s-.168-.12-.29-.154c-.22-.061-.406-.059-.561.004s-.261.18-.337.316a1.7 1.7 0 0 0-.159.453 6.516 6.516 0 0 0-.069.36 9.333 9.333 0 0 1-.021.119v.001a8.3 8.3 0 0 0-.098 1.96c.008.354.085.703.227 1.03.16.422.449.787.829 1.048s.836.405 1.304.413c.468.008.928-.122 1.318-.37s.691-.604.866-1.021a3.686 3.686 0 0 0 .335-1.687 54.477 54.477 0 0 0-.062-1.273l-.034-.622a.98.98 0 0 0-.204-.574.81.81 0 0 0-.305-.248zM24.478 20.984a1.38 1.38 0 0 1-.039.047c-.099-.549-.191-1.097-.283-1.647l-.1-.592-.004-.022-.012-.019c-.023-.036-.025-.071-.025-.146v-.009l-.001-.009c-.025-.155-.098-.299-.209-.413s-.255-.193-.414-.228c-.158-.037-.325-.029-.478.024s-.287.148-.384.273a1.303 1.303 0 0 0-.197.317l-.34.738-.002.004c-.284.616-.57 1.236-.848 1.86l-.001.002c-.171.405-.311.832-.452 1.257l-.084.255a1.018 1.018 0 0 0-.065.419.611.611 0 0 0 .091.365.675.675 0 0 0 1.074.066 2.3 2.3 0 0 0 .291-.436c.235-.462.46-.93.684-1.396.087-.18.171-.341.267-.517l.02.064c.1.424.27.831.502 1.204a.643.643 0 0 0 .433.316.66.66 0 0 0 .535-.113l.149-.107 1.156-.934-.068.418c-.094.575-.187 1.145-.286 1.715a1.54 1.54 0 0 0 0 .769c.028.142.1.273.206.376s.244.174.393.202a.788.788 0 0 0 .443-.045.75.75 0 0 0 .337-.271 1.49 1.49 0 0 0 .342-.792c.049-.409.104-.824.16-1.239.064-.478.128-.956.182-1.425v-.001c.052-.513.077-1.028.075-1.544.011-.163-.031-.325-.121-.464s-.224-.247-.382-.309a.876.876 0 0 0-.525-.055.848.848 0 0 0-.454.254 6.587 6.587 0 0 0-.599.606l-.001.001c-.203.242-.404.489-.604.735l-.363.445z"/></symbol><symbol id="icon-Client_5" viewBox="0 0 32 32"><path d="M28.292 7.794c0 .311.255.563.569.563h.569c.315 0 .569-.252.569-.563s-.255-.562-.569-.562h-.569a.565.565 0 0 0-.569.562zM11.778 25.231h2.766l-.805-.796a1.146 1.146 0 0 0-.805-.329h-1.156c-4.403 0-7.972-3.526-7.972-7.875s3.569-7.875 7.972-7.875h9.111c4.403 0 7.972 3.526 7.972 7.875s-3.569 7.875-7.972 7.875h-3.408a1.72 1.72 0 0 1-1.208-.494l-.943-.932a2.867 2.867 0 0 0-2.013-.824h-1.538c-3.145 0-5.694-2.518-5.694-5.625s2.549-5.625 5.694-5.625h9.111c3.145 0 5.694 2.518 5.694 5.625s-2.549 5.625-5.694 5.625h-2.188a1.72 1.72 0 0 1-1.208-.494l-.944-.932a2.867 2.867 0 0 0-2.013-.824h-2.758c-1.887 0-3.417-1.511-3.417-3.375s1.53-3.375 3.417-3.375h9.111c1.887 0 3.417 1.511 3.417 3.375 0 1.841-1.493 3.338-3.348 3.374v.001h-.833a1.72 1.72 0 0 1-1.208-.494l-.944-.932a2.861 2.861 0 0 0-1.611-.796l-.029-.028h-4.556c-.629 0-1.139-.504-1.139-1.125s.51-1.125 1.139-1.125h9.111c.629 0 1.139.504 1.139 1.125s-.51 1.125-1.139 1.125h-2.278l.805.796c.214.211.503.329.805.329h.667c1.258 0 2.278-1.007 2.278-2.25s-1.02-2.25-2.278-2.25h-9.111c-1.258 0-2.278 1.007-2.278 2.25s1.02 2.25 2.278 2.25h4.181c.453 0 .888.178 1.208.494l.944.932a2.867 2.867 0 0 0 2.013.824h1.05v-.009c2.383-.145 4.271-2.101 4.271-4.491 0-2.485-2.04-4.5-4.556-4.5h-9.111c-2.516 0-4.556 2.015-4.556 4.5s2.04 4.5 4.556 4.5h2.758c.453 0 .888.178 1.208.494l.943.932a2.867 2.867 0 0 0 2.013.824h2.188c3.774 0 6.833-3.022 6.833-6.75s-3.059-6.75-6.833-6.75h-9.111c-3.774 0-6.833 3.022-6.833 6.75s3.059 6.75 6.833 6.75h1.538c.453 0 .888.178 1.208.494l.944.932a2.867 2.867 0 0 0 2.013.824h3.408c5.032 0 9.111-4.029 9.111-9s-4.079-9-9.111-9h-9.111c-5.032 0-9.111 4.029-9.111 9s4.079 9 9.111 9z"/></symbol><symbol id="icon-Client_6" viewBox="0 0 35 32"><path d="M8.229 9.231a5.104 5.104 0 0 0-3.609 1.495L1.496 13.85a5.106 5.106 0 0 0 7.219 7.219l2.161-2.161 6.296-6.296a2.438 2.438 0 0 1 4.042.968l1.987-1.987a5.104 5.104 0 0 0-7.915-.866l-8.457 8.458a2.438 2.438 0 0 1-3.448-3.448l3.124-3.124a2.438 2.438 0 0 1 4.042.968l1.987-1.987a5.1 5.1 0 0 0-4.306-2.361z"/><path d="M17.495 19.184a2.438 2.438 0 0 1-4.042-.967l-1.987 1.987a5.104 5.104 0 0 0 7.914.866l8.458-8.457a2.438 2.438 0 0 1 3.448 3.448l-3.124 3.124a2.438 2.438 0 0 1-4.042-.968l-1.987 1.987a5.104 5.104 0 0 0 7.914.866l3.124-3.124a5.106 5.106 0 0 0-7.219-7.219l-8.458 8.458z"/></symbol><symbol id="icon-Client_7" viewBox="0 0 37 32"><path style="fill:var(--color4,#000)" d="M36.664 13.011a.295.295 0 0 0 0-.084.194.194 0 0 0 0-.068l-.272-1.955a1.258 1.258 0 0 0-.303-.631l-.047-.053-.085-.084-4.702-3.971.132.129c-.108-.127-.243-.228-.396-.296s-.32-.102-.488-.099h-1.428a1.046 1.046 0 0 0-.644.205 1.124 1.124 0 0 0-.667-.205h-1.428c-.187-.003-.372.043-.536.132s-.3.22-.396.378a1.048 1.048 0 0 0-.155.761l.179 1.232a.783.783 0 0 0-.388-.099h-6.914c-.248.002-.49.073-.698.205-.201.123-.363.3-.466.51l-.535-.449a1.122 1.122 0 0 0-.776-.289H4.803a1.446 1.446 0 0 0-.706.198 1.286 1.286 0 0 0-.598.761L.054 20.536a.97.97 0 0 0 .295 1.065c.039.033.081.063.124.091 0 0-.07-.046-.109-.084l4.702 3.979c.199.18.459.28.729.281h10.934c.25-.006.493-.077.706-.205a1.14 1.14 0 0 0 .318-.251l.039-.053.062-.076.047-.084.512.434c.196.172.45.267.714.266h10.957a1.484 1.484 0 0 0 1.024-.456l.039-.053.062-.076a.907.907 0 0 0 .085-.152.844.844 0 0 0 .062-.145l3.143-10.316v-.091a.479.479 0 0 0 0-.107v-.068a.2.2 0 0 0 0-.069.878.878 0 0 0 0-.145h1.009c.088.008.176.008.264 0h.07a.863.863 0 0 0 .163-.068h.078l.14-.106.062-.046.109-.137v-.046l.078-.129a.242.242 0 0 1 0-.076.062.062 0 0 1 0-.038c.016-.045.029-.09.039-.137a.09.09 0 0 1 0-.046.194.194 0 0 1 0-.068s.155-.297.155-.312z"/><path fill="#fff" style="fill:var(--color5,#fff)" d="M15.969 9.146a.266.266 0 0 1 .069.297L12.6 20.732a.53.53 0 0 1-.248.289.666.666 0 0 1-.318.107H1.108a.377.377 0 0 1-.248-.107c-.04-.036-.067-.083-.08-.134s-.009-.105.01-.155L4.235 9.443a.525.525 0 0 1 .241-.297.698.698 0 0 1 .318-.099H15.72a.366.366 0 0 1 .248.099zm-5.704 9.312 2.056-6.74H6.563l-2.049 6.74h5.75zm16.133-9.197a.378.378 0 0 0 .302.13h1.42c.054 0 .107-.013.155-.038s.088-.062.117-.107a.312.312 0 0 0 .054-.243l-.279-2.008a.63.63 0 0 0-.14-.251.378.378 0 0 0-.302-.13h-1.42c-.054 0-.107.013-.155.038s-.088.062-.117.107c-.054.107-.078.175-.054.236l.287 2.008a.465.465 0 0 0 .132.259zm4.508-2.283a.63.63 0 0 0-.14-.251.365.365 0 0 0-.295-.129h-1.428c-.053-.002-.106.011-.152.037s-.085.063-.112.108a.312.312 0 0 0-.062.236l.287 2.008a.518.518 0 0 0 .132.259.39.39 0 0 0 .303.129h1.428a.301.301 0 0 0 .264-.145.283.283 0 0 0 .054-.244l-.279-2.008zm-5.758 3.043-.14-.989h-6.883a.616.616 0 0 0-.303.099c-.057.031-.107.073-.146.124s-.066.11-.079.173l-.574 1.887a.253.253 0 0 0 .047.289.38.38 0 0 0 .241.099h8.365l-2.056 6.74h-8.342a.59.59 0 0 0-.303.091.515.515 0 0 0-.225.297l-.582 1.887a.28.28 0 0 0 .055.289.365.365 0 0 0 .241.107h10.957a.704.704 0 0 0 .318-.107.51.51 0 0 0 .241-.289l3.15-10.316h-3.546a.419.419 0 0 1-.302-.122.552.552 0 0 1-.132-.243v-.015z"/></symbol><symbol id="icon-Associations" viewBox="0 0 38 32"><path fill="#e8f5e9" style="fill:var(--color1,#e8f5e9)" d="M37.429 21.714C37.429 27.395 32.824 32 27.143 32H11.714a2.857 2.857 0 0 1-2.857-2.857V9.714A5.714 5.714 0 0 1 14.571 4h20a2.857 2.857 0 0 1 2.857 2.857v14.857z"/><path fill="#103e13" style="fill:var(--color2,#103e13)" d="M15.666 10.863a.323.323 0 0 1-.323-.323v-.549a.323.323 0 0 1 .646 0v.549a.323.323 0 0 1-.323.323zM14.307 10.863a.323.323 0 0 1-.323-.323v-.549a.323.323 0 0 1 .646 0v.549a.323.323 0 0 1-.323.323zM12.949 10.863a.323.323 0 0 1-.323-.323v-.549a.323.323 0 0 1 .646 0v.549a.323.323 0 0 1-.323.323zM15.666 13.11a.323.323 0 0 1-.323-.323v-.549a.323.323 0 0 1 .646 0v.549a.323.323 0 0 1-.323.323zM14.307 13.11a.323.323 0 0 1-.323-.323v-.549a.323.323 0 0 1 .646 0v.549a.323.323 0 0 1-.323.323zM12.949 13.11a.323.323 0 0 1-.323-.323v-.549a.323.323 0 0 1 .646 0v.549a.323.323 0 0 1-.323.323zM15.666 15.356a.323.323 0 0 1-.323-.323v-.549a.323.323 0 0 1 .646 0v.549a.323.323 0 0 1-.323.323zM14.307 15.356a.323.323 0 0 1-.323-.323v-.549a.323.323 0 0 1 .646 0v.549a.323.323 0 0 1-.323.323zM12.949 15.356a.323.323 0 0 1-.323-.323v-.549a.323.323 0 0 1 .646 0v.549a.323.323 0 0 1-.323.323zM15.666 17.602a.323.323 0 0 1-.323-.323v-.549a.323.323 0 0 1 .646 0v.549a.323.323 0 0 1-.323.323zM14.307 17.602a.323.323 0 0 1-.323-.323v-.549a.323.323 0 0 1 .646 0v.549a.323.323 0 0 1-.323.323zM12.949 17.602a.323.323 0 0 1-.323-.323v-.549a.323.323 0 0 1 .646 0v.549a.323.323 0 0 1-.323.323zM15.666 19.849a.323.323 0 0 1-.323-.323v-.549a.323.323 0 0 1 .646 0v.549a.323.323 0 0 1-.323.323zM14.307 19.849a.323.323 0 0 1-.323-.323v-.549a.323.323 0 0 1 .646 0v.549a.323.323 0 0 1-.323.323zM12.949 19.849a.323.323 0 0 1-.323-.323v-.549a.323.323 0 0 1 .646 0v.549a.323.323 0 0 1-.323.323z"/><path fill="#103e13" style="fill:var(--color2,#103e13)" d="M3.715 22.084c0 .178.145.323.323.323h19.684a.323.323 0 0 0 0-.646h-.598V12.48a.323.323 0 0 0-.323-.323h-5.278V5.466c0-.113-.059-.218-.156-.276s-.217-.062-.317-.01l-6 3.124a.323.323 0 0 0-.174.287v5.844H5.069a.323.323 0 0 0-.323.323v7.003h-.71a.323.323 0 0 0-.323.323zm13.809-5.031h4.954v4.708h-4.954v-4.708zm0-2.247h4.954v1.6h-4.954v-1.6zm0-2.003h4.954v1.357h-4.954v-1.357zm-6-4.017 5.354-2.787v15.762h-5.354V8.787zM6.992 19.179c0-.671.532-1.217 1.185-1.217s1.185.546 1.185 1.217v2.582h-2.37v-2.582zm-1.598-4.098h5.484v6.68h-.869v-2.582c0-1.027-.821-1.863-1.832-1.863s-1.831.836-1.831 1.863v2.582h-.952v-6.68z"/></symbol><symbol id="icon-Groups" viewBox="0 0 37 32"><path fill="#e8f5e9" style="fill:var(--color1,#e8f5e9)" d="M37.143 21.714C37.143 27.395 32.538 32 26.857 32H11.428a2.857 2.857 0 0 1-2.857-2.857V9.714A5.714 5.714 0 0 1 14.285 4h20a2.857 2.857 0 0 1 2.857 2.857v14.857z"/><path fill="#103e13" style="fill:var(--color2,#103e13)" d="M16.178 13.511a.798.798 0 0 1-.379-.099v.002a.807.807 0 0 1-.809.809.805.805 0 0 1-.384-.101.803.803 0 0 1-.804.761.807.807 0 0 1-.804-.761.809.809 0 0 1-.438.1.823.823 0 0 1-.754-.832V9.752l-.414.718a.892.892 0 0 1-1.215.327.725.725 0 0 1-.267-.996l1.438-2.491.062-.138c.023-.051.042-.104.061-.156.409-1.154 1.421-1.871 2.641-1.871 1.585 0 2.874 1.398 2.874 3.117v4.442a.807.807 0 0 1-.808.809zm-2.066-7.938c-1.049 0-1.885.592-2.236 1.585a2.495 2.495 0 0 1-.073.187c-.079.178-.079.178-.102.203l-.003-.003c-.111.209-.439.778-1.416 2.469a.3.3 0 0 0 .109.409.471.471 0 0 0 .628-.169l.816-1.412c.049-.084.147-.126.242-.1s.159.11.159.208v4.44c0 .21.158.39.352.403a.377.377 0 0 0 .406-.378v-2.904a.215.215 0 1 1 .43 0v3.564a.38.38 0 0 0 .758 0v-3.564a.215.215 0 1 1 .43 0v2.903a.38.38 0 0 0 .758 0V10.51a.215.215 0 1 1 .43 0v2.192a.38.38 0 0 0 .758 0V8.26c0-1.482-1.097-2.687-2.445-2.687zM7.731 16.599l3.12-1.872a.822.822 0 0 1 1.101.219.81.81 0 0 1 .14.426.799.799 0 0 1 1.067.299.802.802 0 0 1-.239 1.081.802.802 0 0 1 .375.889.804.804 0 0 1-.369.497l-.001.001a.795.795 0 0 1 .37.887.805.805 0 0 1-.369.497l-3.809 2.285a3.237 3.237 0 0 1-2.314.414c-.788-.161-1.441-.614-1.838-1.276-.628-1.047-.534-2.283.245-3.227.036-.043.071-.087.103-.132l.087-.124 1.396-2.515a.727.727 0 0 1 .993-.283.89.89 0 0 1 .344 1.209l-.402.725zm.019-1.394a.45.45 0 0 0-.169-.164.3.3 0 0 0-.407.116c-.942 1.696-1.263 2.274-1.386 2.48l.003.001c-.01.034-.01.034-.124.196-.038.055-.08.107-.123.159-.67.812-.748 1.833-.208 2.733.334.557.886.939 1.555 1.076.676.137 1.388.01 2.007-.361l3.81-2.285a.378.378 0 1 0-.39-.65l-1.879 1.128a.215.215 0 1 1-.221-.369l2.49-1.494a.378.378 0 1 0-.39-.65l-2.49 1.494a.215.215 0 1 1-.221-.369l3.056-1.833a.378.378 0 0 0-.103-.693.376.376 0 0 0-.287.043l-.566.339-2.49 1.494a.215.215 0 1 1-.221-.369l2.49-1.494a.375.375 0 0 0 .173-.233.374.374 0 0 0-.057-.309c-.111-.16-.347-.203-.527-.095L7.268 17.38a.216.216 0 0 1-.299-.289l.792-1.426a.463.463 0 0 0-.008-.46zM22.639 20.947c-.397.662-1.049 1.115-1.837 1.276a3.242 3.242 0 0 1-2.314-.414l-3.81-2.285a.807.807 0 0 1 .002-1.384l-.001-.001a.808.808 0 0 1 .004-1.388.798.798 0 0 1-.237-1.079.808.808 0 0 1 1.067-.299.81.81 0 0 1 .14-.426.824.824 0 0 1 1.102-.219l3.12 1.871-.402-.724a.89.89 0 0 1 .345-1.209.73.73 0 0 1 .992.284l1.397 2.515.086.124c.032.046.067.089.103.133.779.944.873 2.181.245 3.227zm-.577-2.953a2.602 2.602 0 0 1-.123-.159c-.116-.165-.119-.169-.128-.213-.136-.225-.468-.822-1.38-2.465a.3.3 0 0 0-.406-.117.459.459 0 0 0-.178.625l.791 1.426a.215.215 0 0 1-.298.289l-3.807-2.284c-.179-.108-.416-.065-.527.095a.374.374 0 0 0-.057.309.375.375 0 0 0 .173.233l.001.001 2.489 1.493a.215.215 0 1 1-.221.369l-3.056-1.833a.38.38 0 0 0-.563.417.375.375 0 0 0 .173.233l3.056 1.833a.215.215 0 1 1-.221.369l-2.49-1.494a.38.38 0 0 0-.39.65l2.49 1.494a.215.215 0 1 1-.221.369l-1.879-1.128a.38.38 0 1 0-.39.65l3.81 2.285a2.807 2.807 0 0 0 2.007.361c.669-.137 1.221-.518 1.555-1.076.54-.9.462-1.921-.207-2.733z"/></symbol><symbol id="icon-Organisations" viewBox="0 0 37 32"><path fill="#e8f5e9" style="fill:var(--color1,#e8f5e9)" d="M37.143 21.714C37.143 27.395 32.538 32 26.857 32H11.428a2.857 2.857 0 0 1-2.857-2.857V9.714A5.714 5.714 0 0 1 14.285 4h20a2.857 2.857 0 0 1 2.857 2.857v14.857z"/><path fill="#103e13" style="fill:var(--color2,#103e13)" d="M13.709 5.714c-2.041 0-3.702 1.676-3.702 3.726a3.73 3.73 0 0 0 1.671 3.108 6.426 6.426 0 0 0-3.035 2.157 5.346 5.346 0 0 0-1.415-.78 3.175 3.175 0 0 0 1.287-2.549c0-1.738-1.406-3.161-3.133-3.161s-3.133 1.423-3.133 3.161c0 1.044.509 1.972 1.288 2.55a5.426 5.426 0 0 0-3.535 5.098v1.647a.469.469 0 0 0 .474.472h7.226a.47.47 0 0 0 .053.003h11.912a.453.453 0 0 0 .052-.003h7.226a.473.473 0 0 0 .471-.472v-1.647a5.423 5.423 0 0 0-3.531-5.098 3.174 3.174 0 0 0 1.288-2.55c0-1.738-1.406-3.161-3.133-3.161s-3.133 1.423-3.133 3.161c0 1.043.509 1.971 1.287 2.549-.514.189-.99.454-1.417.782a6.416 6.416 0 0 0-3.034-2.159 3.73 3.73 0 0 0 1.671-3.108c0-2.049-1.662-3.726-3.703-3.726zm0 .946a2.763 2.763 0 0 1 2.757 2.781 2.76 2.76 0 0 1-2.721 2.776l-.036-.002-.036.002a2.758 2.758 0 0 1-2.72-2.776 2.76 2.76 0 0 1 2.756-2.78zM5.38 9.161c1.211 0 2.188.983 2.188 2.216a2.196 2.196 0 0 1-2.164 2.216l-.024-.001-.024.001a2.196 2.196 0 0 1-2.164-2.216c0-1.233.977-2.216 2.188-2.216zm16.657 0c1.211 0 2.188.983 2.188 2.216a2.196 2.196 0 0 1-2.164 2.216l-.024-.001-.024.001a2.196 2.196 0 0 1-2.164-2.216c0-1.233.977-2.216 2.188-2.216zm-8.365 4.001.036.002.036-.002c3.027.019 5.45 2.463 5.45 5.521v1.518H8.224v-1.518c0-3.059 2.422-5.502 5.448-5.521zM5.344 14.54l.036.002.036-.002a4.374 4.374 0 0 1 2.702.952 6.467 6.467 0 0 0-.84 3.191v1.514H.945v-1.173c0-2.486 1.954-4.465 4.399-4.485zm16.657 0 .036.002.036-.002c2.445.019 4.399 1.999 4.399 4.485v1.172h-6.337v-1.514a6.475 6.475 0 0 0-.838-3.19 4.386 4.386 0 0 1 2.704-.954z"/></symbol><symbol id="icon-Hero_pic" viewBox="0 0 31 32"><path fill="#e0e0e0" style="fill:var(--color1,#e0e0e0)" d="M11.66 31.997a.308.308 0 0 1-.299-.247l-.069-.366a4.079 4.079 0 0 1-.464-.114h-.012l-.644.299a.386.386 0 0 1-.332-.015l-.639-.371c-.039-.021-.071-.051-.095-.088s-.037-.079-.039-.123a.257.257 0 0 1 .112-.223l.388-.28a1.435 1.435 0 0 1-.097-.147l-.818-.051a.292.292 0 0 1-.275-.292V29.5a.292.292 0 0 1 .274-.292l.818-.052c.029-.051.061-.1.097-.146l-.39-.277c-.036-.024-.066-.058-.085-.097s-.029-.083-.027-.126a.255.255 0 0 1 .134-.211l.639-.371a.362.362 0 0 1 .182-.046.35.35 0 0 1 .15.031l.645.299h.008c.154-.048.311-.086.47-.115l.069-.366a.305.305 0 0 1 .299-.246h.944a.308.308 0 0 1 .299.247l.07.366c.157.029.311.067.463.113h.012l.645-.299a.35.35 0 0 1 .149-.031.366.366 0 0 1 .183.046l.639.371a.256.256 0 0 1 .107.337.249.249 0 0 1-.085.097l-.389.28c.035.047.068.096.098.146l.818.052a.292.292 0 0 1 .274.292v.479a.292.292 0 0 1-.274.292l-.818.051c-.029.051-.062.1-.098.147l.389.28a.251.251 0 0 1 .072.346.256.256 0 0 1-.094.088l-.639.371a.366.366 0 0 1-.183.046.362.362 0 0 1-.149-.031l-.645-.299h-.008c-.154.048-.31.087-.469.116l-.069.365a.308.308 0 0 1-.299.248l-.942-.003zm.472-2.691a1.99 1.99 0 0 0-.98.232c-.22.127-.346.289-.346.447s.126.32.346.447a2.195 2.195 0 0 0 1.962 0c.22-.127.345-.289.345-.447s-.125-.32-.345-.447c-.302-.16-.64-.24-.981-.232zM15.191 18.325l-.268-.154a.72.72 0 0 0-.656 0L.136 26.331c-.181.104-.181.275 0 .379l.267.154a.724.724 0 0 0 .658 0l4.293-2.476 1.74 1.003c.492.284 1.298.284 1.791 0l2.961-1.71c.42-.24.42-.639 0-.879l-1.869-1.087 5.217-3.011c.18-.105.18-.275-.001-.379z"/><path fill="#103e13" style="fill:var(--color2,#103e13)" opacity=".01" d="M15.739 4.487 2.954 11.866v7.232a.206.206 0 0 0 .034.118c.008.013.018.023.031.031s.027.012.042.012a.108.108 0 0 0 .052-.015l12.931-7.47v-7.11c0-.197-.137-.275-.304-.177z"/><path fill="#37474f" style="fill:var(--color3,#37474f)" d="m9.15 24.965 2.45-1.416c.252-.146.379-.337.379-.528v-.341l-2.306-1.308a.535.535 0 0 1-.243-.422v-3.02l-4.277 2.472v3.02a.53.53 0 0 0 .24.421l1.926 1.118c.509.294 1.328.294 1.833.002z"/><path fill="#263238" style="fill:var(--color4,#263238)" d="M6.179 23.957v.34l-.784-.452a.535.535 0 0 1-.244-.422v-3.019l.815-.471.053.63-.572.331v2.359a.546.546 0 0 0 .239.423l.492.283z"/><path fill="#455a64" style="fill:var(--color5,#455a64)" d="M5.447 23.253a.538.538 0 0 0 .24.423l1.63.95c.506.292 1.325.292 1.83 0l2.451-1.416c.506-.292.506-.764 0-1.056l-1.632-.951a.535.535 0 0 1-.243-.423v-2.358l-4.275 2.471v2.36z"/><path fill="#103e13" style="fill:var(--color2,#103e13)" opacity=".15" d="m10.466 21.489-.496-.287a.535.535 0 0 1-.243-.423v-2.358l-4.28 2.471v2.36a.538.538 0 0 0 .24.423l.488.281 4.292-2.467z"/><path fill="#37474f" style="fill:var(--color3,#37474f)" d="M.349 25.115a.65.65 0 0 0 .591-.011l14.079-8.126a.67.67 0 0 0 .304-.528V4.663a.568.568 0 0 0-.287-.519.578.578 0 0 0-.592.013L.367 12.283a.687.687 0 0 0-.301.528v11.787a.652.652 0 0 0 .282.517z"/><path fill="#455a64" style="fill:var(--color5,#455a64)" d="m.94 25.103 14.079-8.126c.089-.058.163-.136.215-.228s.083-.195.089-.3V4.663c0-.195-.137-.273-.304-.176L.94 12.613a.67.67 0 0 0-.304.528v11.787c-.001.194.136.272.304.176z"/><path fill="#4caf4f" style="fill:var(--color6,#4caf4f)" d="M1.038 23.506V13.281a.41.41 0 0 1 .187-.324L14.733 5.16c.103-.06.187-.011.187.108v10.225a.415.415 0 0 1-.188.325L1.225 23.615c-.103.059-.187.011-.187-.109z"/><path fill="#fff" style="fill:var(--color7,#fff)" opacity=".75" d="M1.038 23.506V13.281a.41.41 0 0 1 .187-.324L14.733 5.16c.103-.06.187-.011.187.108v10.225a.415.415 0 0 1-.188.325L1.225 23.615c-.103.059-.187.011-.187-.109z"/><path fill="#263238" style="fill:var(--color4,#263238)" d="m.153 12.511.572.33a.629.629 0 0 0-.09.301v11.786c0 .177.121.276.305.176a.644.644 0 0 1-.591.011.586.586 0 0 1-.287-.48V12.812a.63.63 0 0 1 .09-.302z"/><path fill="#4caf4f" style="fill:var(--color6,#4caf4f)" d="m7.357 20.587 1.244-.719c.062-.035.112-.01.112.057-.003.038-.014.074-.034.106s-.046.059-.078.079l-1.244.719c-.062.036-.112.01-.112-.056a.248.248 0 0 1 .112-.186z"/><path fill="#f5f7fa" style="fill:var(--color8,#f5f7fa)" d="M2.778 18.901a.11.11 0 0 0 .052-.016l13.686-7.908a.439.439 0 0 0 .195-.334V.305c0-.073-.03-.116-.08-.116a.162.162 0 0 0-.08.024L2.864 8.118a.442.442 0 0 0-.195.336v10.284a.206.206 0 0 0 .034.118.095.095 0 0 0 .075.047z"/><path fill="#f5f7fa" style="fill:var(--color8,#f5f7fa)" d="M2.454 18.767c.023.012.188.105.26.147a.222.222 0 0 1-.08-.178V9.142l-.271-.16v9.599c-.002.036.005.072.021.105s.04.06.07.08z"/><path fill="#e0e0e0" style="fill:var(--color1,#e0e0e0)" d="M16.629.224c.04 0 .046.05.046.08v10.338a.41.41 0 0 1-.176.305L2.813 18.855a.067.067 0 0 1-.034.01c-.038 0-.07-.058-.07-.125V8.451c.004-.061.022-.12.052-.173s.073-.098.124-.131L16.571.244a.125.125 0 0 1 .059-.019zm0-.071a.182.182 0 0 0-.094.029L2.848 8.084a.46.46 0 0 0-.211.367v10.286c0 .106.059.197.141.197a.133.133 0 0 0 .07-.021l13.685-7.908a.47.47 0 0 0 .212-.365V.305c0-.096-.048-.151-.117-.151z"/><path fill="#4caf4f" style="fill:var(--color6,#4caf4f)" d="M16.745.299v.709L2.636 9.156l-.271-.16v-.697a.441.441 0 0 1 .064-.212.42.42 0 0 1 .148-.154L16.263.028c.022-.016.048-.026.075-.028s.054.003.079.015a12.169 12.169 0 0 0 .278.16c.006.005.012.01.017.017l.014.022a.082.082 0 0 1 .01.026c.003.009.005.019.006.029s.003.021.002.031z"/><path fill="#103e13" style="fill:var(--color2,#103e13)" opacity=".15" d="M16.745.299v.709L2.636 9.156l-.271-.16v-.697a.441.441 0 0 1 .064-.212.42.42 0 0 1 .148-.154L16.263.028c.022-.016.048-.026.075-.028s.054.003.079.015a12.169 12.169 0 0 0 .278.16c.006.005.012.01.017.017l.014.022a.082.082 0 0 1 .01.026c.003.009.005.019.006.029s.003.021.002.031z"/><path fill="#4caf4f" style="fill:var(--color6,#4caf4f)" d="M16.745.299v.709L2.636 9.156v-.7a.374.374 0 0 1 .035-.154.448.448 0 0 1 .029-.058.42.42 0 0 1 .149-.156L16.534.18a.14.14 0 0 1 .16-.006c.006.005.012.01.017.017l.014.022a.082.082 0 0 1 .01.026.136.136 0 0 1 .006.029c.003.01.004.021.005.031z"/><path fill="#4caf4f" style="fill:var(--color6,#4caf4f)" d="M16.534.182 2.848 8.084a.432.432 0 0 0-.149.16l-.268-.16a.413.413 0 0 1 .147-.155l13.686-7.9c.022-.016.048-.026.075-.028s.055.003.079.015c.038.023.213.123.258.147a.15.15 0 0 0-.141.019z"/><path fill="#fff" style="fill:var(--color7,#fff)" opacity=".25" d="M16.534.182 2.848 8.084a.432.432 0 0 0-.149.16l-.268-.16a.413.413 0 0 1 .147-.155l13.686-7.9c.022-.016.048-.026.075-.028s.055.003.079.015c.038.023.213.123.258.147a.15.15 0 0 0-.141.019z"/><path fill="#455a64" style="fill:var(--color5,#455a64)" d="M6.06 9.494c-.005 0-.01-.002-.014-.006s-.006-.008-.006-.014v-.806c0-.005.002-.01.006-.014s.008-.006.014-.006c.003 0 .005 0 .007.002l.006.004.004.006.001.007v.806l-.001.007-.004.006-.006.004-.007.001zM6.741 9.582l-.01-.002c-.003-.001-.005-.004-.007-.007l-.002-.007.001-.007.003-.007a.01.01 0 0 1 .006-.005l.531-.307.007-.003c.002-.001.005 0 .008.001l.007.003.005.006c.001.002.003.009.002.014s-.004.009-.009.011l-.531.307c-.003.002-.006.002-.009.002zM6.643 13.817l-.01-.002c-.003-.001-.005-.004-.007-.007l-.002-.007.001-.007.003-.007a.01.01 0 0 1 .006-.005l.531-.307c.004-.002.01-.003.015-.002s.009.004.012.009c.002.005.003.01.001.015s-.004.009-.009.012l-.531.306c-.003.002-.006.002-.009.002zM8.569 12.705c-.003 0-.007-.001-.009-.003l-.007-.007-.003-.007v-.007l.004-.007.006-.004.531-.307.007-.003h.007l.007.003c.002.001.003.004.004.006l.003.007v.007l-.003.007a.012.012 0 0 1-.005.005l-.531.307c-.003.002-.006.002-.01.002zM8.697 8.455c-.003 0-.007-.001-.009-.003l-.007-.007-.003-.007v-.007l.003-.007a.012.012 0 0 1 .005-.005l.531-.307.007-.002.007.001.007.003a.01.01 0 0 1 .005.006l.003.007v.007l-.003.007a.012.012 0 0 1-.005.005l-.531.307c-.003.002-.006.002-.01.002zM8.659 10.585l-.009-.002a.023.023 0 0 1-.007-.007l-.002-.007v-.008l.003-.007.006-.005.531-.307c.004-.003.01-.003.015-.002s.009.005.012.009c.003.004.003.01.002.015s-.005.009-.009.012l-.531.306c-.003.002-.006.003-.009.002zM8.625 14.545c-.003 0-.007-.001-.009-.003l-.007-.007-.004-.008v-.008l.004-.007c.002-.002.004-.004.007-.004l.495-.287c.004-.002.009-.003.014-.002s.009.004.011.009l.003.007v.007l-.003.007a.012.012 0 0 1-.005.005l-.496.287c-.003.003-.007.004-.01.005zM6.75 11.686l-.009-.002a.023.023 0 0 1-.007-.007l-.003-.007v-.007l.003-.007a.012.012 0 0 1 .005-.005l.531-.307c.004-.002.009-.003.014-.002s.009.004.011.009l.002.007-.001.008-.003.007a.01.01 0 0 1-.006.005l-.531.306-.01.002zM9.77 9.175c-.005 0-.01-.002-.014-.006s-.006-.008-.006-.014v-.614c0-.005.002-.01.006-.014s.008-.006.014-.006.01.002.014.006a.018.018 0 0 1 .006.014v.614c0 .005-.002.01-.006.014s-.008.006-.014.006zM6.06 13.1h-.01c-.004-.001-.005-.004-.007-.007l-.003-.009v-.452c0-.005.002-.01.006-.014s.008-.006.014-.006l.007.002.006.004.004.006.001.007v.419l3.676-2.122v-.281c0-.005.002-.01.006-.014s.008-.006.014-.006c.005 0 .01.002.014.006s.006.008.006.014v.292l-.003.009a.023.023 0 0 1-.007.007l-3.715 2.144a.011.011 0 0 1-.008 0zM6.06 15.197h-.01c-.004-.001-.006-.004-.007-.007a.012.012 0 0 1-.002-.01v-.292c0-.005.002-.01.006-.014s.008-.006.014-.006l.007.002.006.004.004.006.001.007v.258l3.676-2.122v-.443c0-.005.002-.01.006-.014s.008-.006.014-.006c.005 0 .01.002.014.006s.006.008.006.014v.452l-.003.009a.023.023 0 0 1-.007.007l-3.717 2.144a.014.014 0 0 1-.006.002zM5.206 14.646h-.01c-.004-.001-.005-.004-.007-.007a.017.017 0 0 1-.003-.01v-2.071l.003-.009a.023.023 0 0 1 .007-.007l.201-.117c.004-.002.008-.002.012-.001s.008.003.01.006l.002.007v.007l-.003.007a.01.01 0 0 1-.006.005l-.191.11v2.024l.211-.121.007-.004h.008a.069.069 0 0 0 .008.003l.006.006c.002.002.002.005.002.008l-.001.008-.005.007-.007.004-.24.138-.006.005zM10.49 13.469c-.003 0-.007-.001-.009-.003l-.007-.007-.002-.007.001-.008.003-.007.006-.005.2-.115v-1.829l-.173.099-.007.003h-.007l-.007-.003a.012.012 0 0 1-.005-.005l-.003-.007v-.007l.003-.007a.012.012 0 0 1 .005-.005l.201-.116c.003-.002.006-.002.01-.002l.01.002.007.007c.002.003.002.006.002.009v1.873l-.002.009c-.001.003-.004.005-.007.007l-.21.125a.017.017 0 0 1-.01 0z"/><path fill="#4caf4f" style="fill:var(--color6,#4caf4f)" d="m6.578 10.002-1.044.602c-.031.018-.056 0-.056-.043v-.538a.131.131 0 0 1 .056-.108l1.044-.6c.031-.018.056 0 .056.043v.537a.141.141 0 0 1-.056.107z"/><path fill="#fff" style="fill:var(--color7,#fff)" opacity=".6" d="m6.578 10.002-1.044.602c-.031.018-.056 0-.056-.043v-.538a.131.131 0 0 1 .056-.108l1.044-.6c.031-.018.056 0 .056.043v.537a.141.141 0 0 1-.056.107z"/><path fill="#4caf4f" style="fill:var(--color6,#4caf4f)" d="m8.457 8.916-1.039.602c-.031.018-.057 0-.057-.042v-.538c0-.021.006-.042.016-.061s.024-.035.041-.047l1.039-.602c.031-.018.057 0 .057.042v.538a.131.131 0 0 1-.056.108z"/><path fill="#fff" style="fill:var(--color7,#fff)" opacity=".6" d="m8.457 8.916-1.039.602c-.031.018-.057 0-.057-.042v-.538c0-.021.006-.042.016-.061s.024-.035.041-.047l1.039-.602c.031-.018.057 0 .057.042v.538a.131.131 0 0 1-.056.108z"/><path fill="#4caf4f" style="fill:var(--color6,#4caf4f)" d="m8.457 11.025-1.039.602c-.031.018-.057 0-.057-.042v-.538c0-.021.006-.042.016-.061s.024-.035.041-.047l1.039-.602c.031-.018.057 0 .057.042v.538c0 .021-.006.042-.015.061s-.024.035-.041.047z"/><path fill="#fff" style="fill:var(--color7,#fff)" opacity=".6" d="m8.457 11.025-1.039.602c-.031.018-.057 0-.057-.042v-.538c0-.021.006-.042.016-.061s.024-.035.041-.047l1.039-.602c.031-.018.057 0 .057.042v.538c0 .021-.006.042-.015.061s-.024.035-.041.047z"/><path fill="#4caf4f" style="fill:var(--color6,#4caf4f)" d="m8.457 13.094-1.039.602c-.031.018-.057 0-.057-.043v-.538c0-.021.006-.042.016-.061s.024-.035.041-.047l1.039-.602c.031-.018.057 0 .057.043v.537a.135.135 0 0 1-.056.109z"/><path fill="#fff" style="fill:var(--color7,#fff)" opacity=".6" d="m8.457 13.094-1.039.602c-.031.018-.057 0-.057-.043v-.538c0-.021.006-.042.016-.061s.024-.035.041-.047l1.039-.602c.031-.018.057 0 .057.043v.537a.135.135 0 0 1-.056.109z"/><path fill="#4caf4f" style="fill:var(--color6,#4caf4f)" d="m10.295 12.035-1.044.602c-.031.018-.057 0-.057-.042v-.538c0-.021.006-.042.016-.061s.024-.035.041-.047l1.044-.602c.031-.018.057 0 .057.042v.538c0 .021-.006.042-.015.061s-.024.035-.041.047z"/><path fill="#fff" style="fill:var(--color7,#fff)" opacity=".6" d="m10.295 12.035-1.044.602c-.031.018-.057 0-.057-.042v-.538c0-.021.006-.042.016-.061s.024-.035.041-.047l1.044-.602c.031-.018.057 0 .057.042v.538c0 .021-.006.042-.015.061s-.024.035-.041.047z"/><path fill="#4caf4f" style="fill:var(--color6,#4caf4f)" d="m10.295 13.908-1.046.6c-.031.018-.057 0-.057-.042v-.538c0-.021.006-.042.015-.061s.024-.035.041-.047l1.046-.6c.031-.018.057 0 .057.042v.538c0 .021-.006.042-.016.061s-.024.035-.041.047z"/><path fill="#fff" style="fill:var(--color7,#fff)" opacity=".6" d="m10.295 13.908-1.046.6c-.031.018-.057 0-.057-.042v-.538c0-.021.006-.042.015-.061s.024-.035.041-.047l1.046-.6c.031-.018.057 0 .057.042v.538c0 .021-.006.042-.016.061s-.024.035-.041.047z"/><path fill="#4caf4f" style="fill:var(--color6,#4caf4f)" d="m6.578 12.111-1.044.602c-.031.018-.056 0-.056-.043v-.537c0-.021.005-.042.015-.061s.024-.035.041-.048l1.044-.602c.031-.018.056 0 .056.043v.538a.131.131 0 0 1-.056.108z"/><path fill="#fff" style="fill:var(--color7,#fff)" opacity=".6" d="m6.578 12.111-1.044.602c-.031.018-.056 0-.056-.043v-.537c0-.021.005-.042.015-.061s.024-.035.041-.048l1.044-.602c.031-.018.056 0 .056.043v.538a.131.131 0 0 1-.056.108z"/><path fill="#c8e6c9" style="fill:var(--color9,#c8e6c9)" d="m10.219 9.748-.409.705c-.024.041-.056.06-.08.046l-.409-.233c-.036-.021-.036-.103 0-.165l.409-.705c.024-.041.056-.06.08-.046l.409.233c.036.02.036.103 0 .165zM6.505 13.96l-.408.708c-.024.041-.057.06-.08.046l-.409-.233c-.036-.02-.036-.103 0-.165l.409-.705c.023-.041.056-.06.08-.046l.408.233c.034.018.034.101 0 .162z"/><path fill="#455a64" style="fill:var(--color5,#455a64)" d="M4.509 11.472 4.5 11.47a.037.037 0 0 1-.007-.006c-.002-.004-.003-.01-.002-.015s.005-.009.009-.012l1.232-.711.007-.003h.007l.007.003.005.005c.001.002.003.01.002.015s-.005.009-.009.012l-1.232.713a.017.017 0 0 1-.01 0z"/><path fill="#e0e0e0" style="fill:var(--color1,#e0e0e0)" d="M4.509 11.654c-.003 0-.007-.001-.01-.003l-.007-.007c-.002-.004-.003-.009-.002-.014s.004-.009.009-.011l1.232-.712c.004-.002.01-.003.015-.002s.009.004.012.009c.002.004.003.009.002.014s-.004.009-.009.011l-1.232.712c-.003.002-.006.002-.01.002zM4.509 11.833c-.003 0-.007-.001-.01-.003l-.007-.007c-.002-.004-.003-.01-.002-.015s.005-.009.009-.012l1.232-.711.007-.002.008.001.007.003c.002.001.004.003.005.006s.003.009.002.014a.014.014 0 0 1-.009.011l-1.232.712-.01.002zM4.509 12.011l-.009-.002a.037.037 0 0 1-.007-.006c-.002-.004-.003-.01-.002-.015s.005-.009.009-.012l1.232-.711.007-.003h.007l.007.003.005.005c.001.002.003.01.002.015s-.005.009-.009.012l-1.232.711c-.003.002-.006.002-.01.002z"/><path fill="#455a64" style="fill:var(--color5,#455a64)" d="m3.967 9.385-.009-.002a.023.023 0 0 1-.007-.007l-.003-.007v-.007l.003-.007a.01.01 0 0 1 .006-.005l1.233-.711h.013c.004.001.008.005.01.008s.003.008.002.013a.024.024 0 0 1-.006.011l-1.232.712c-.003.002-.006.002-.01.002z"/><path fill="#e0e0e0" style="fill:var(--color1,#e0e0e0)" d="m3.967 9.563-.009-.002c-.003-.001-.005-.004-.007-.007l-.003-.007V9.54l.003-.007a.01.01 0 0 1 .006-.005l1.233-.711.007-.003h.007l.007.003a.012.012 0 0 1 .005.005l.002.007v.008l-.003.007a.01.01 0 0 1-.006.005l-1.232.711c-.003.002-.006.002-.01.002zM3.967 9.742c-.003 0-.007-.001-.009-.003l-.007-.007-.003-.007v-.007l.003-.007a.012.012 0 0 1 .005-.005l1.233-.711c.004-.002.009-.003.014-.002s.009.004.011.009l.002.007-.001.007-.003.007a.01.01 0 0 1-.006.005l-1.232.712a.03.03 0 0 1-.01.002zM3.967 9.921c-.004 0-.008-.001-.012-.004s-.006-.006-.007-.01-.001-.009.001-.012l.008-.009 1.233-.711.007-.002h.007l.007.003.005.006.002.007-.001.007-.003.007a.01.01 0 0 1-.006.005l-1.232.712-.01.002z"/><path fill="#455a64" style="fill:var(--color5,#455a64)" d="M7.321 9.831c-.004 0-.008-.001-.012-.004s-.006-.006-.007-.01-.001-.009.001-.012l.008-.009 1.233-.711.007-.002.007.001.007.003.005.006.002.007v.007l-.003.007-.006.005-1.232.711a.017.017 0 0 1-.01.003z"/><path fill="#e0e0e0" style="fill:var(--color1,#e0e0e0)" d="m7.321 10.009-.009-.002A.023.023 0 0 1 7.305 10l-.003-.007v-.007l.003-.007a.012.012 0 0 1 .005-.005l1.233-.712c.004-.002.009-.002.014-.001s.008.005.011.009.003.009.002.014a.015.015 0 0 1-.008.011l-1.232.711-.01.002zM7.321 10.188c-.003 0-.007-.001-.009-.003l-.007-.007-.003-.007v-.007l.003-.007a.012.012 0 0 1 .005-.005l1.233-.712c.004-.002.009-.003.014-.002s.009.004.011.009l.002.007-.001.007-.003.007-.006.005-1.232.712c-.003.002-.006.002-.01.002zM7.321 10.367c-.004 0-.008-.001-.012-.004s-.006-.006-.007-.01-.001-.008.001-.012.005-.007.008-.009l1.233-.711.007-.003h.007l.007.003a.012.012 0 0 1 .005.005l.002.007-.001.008-.003.007a.01.01 0 0 1-.006.005l-1.232.711a.017.017 0 0 1-.01.003z"/><path fill="#455a64" style="fill:var(--color5,#455a64)" d="M9.104 6.775c-.003 0-.007-.001-.009-.003l-.007-.007-.003-.007v-.007l.004-.007.006-.005 1.232-.712c.004-.002.009-.003.014-.002s.009.004.011.009l.003.007v.007l-.003.007a.012.012 0 0 1-.005.005l-1.233.712c-.003.002-.006.002-.01.002z"/><path fill="#e0e0e0" style="fill:var(--color1,#e0e0e0)" d="m9.104 6.954-.009-.003a.023.023 0 0 1-.007-.007c-.002-.004-.003-.01-.001-.014s.005-.009.009-.011l1.232-.711.007-.003h.007l.007.003.005.006c.002.002.002.004.003.007v.007l-.003.007a.012.012 0 0 1-.005.005l-1.233.711-.005.002h-.005zM9.104 7.132c-.003 0-.007-.001-.009-.003l-.007-.007-.002-.007.001-.007.003-.007a.01.01 0 0 1 .006-.005l1.232-.711.007-.003h.007l.007.003.005.005.003.007v.007l-.003.007a.012.012 0 0 1-.005.005l-1.233.711c-.003.002-.006.002-.01.002zM9.104 7.311c-.003 0-.007-.001-.009-.003l-.007-.007-.003-.007v-.007l.004-.007.006-.005 1.232-.712c.004-.002.009-.003.014-.002s.009.004.011.009l.003.007v.007l-.003.007a.012.012 0 0 1-.005.005l-1.233.712c-.003.002-.006.002-.01.002z"/><path fill="#455a64" style="fill:var(--color5,#455a64)" d="m10.246 8.775-.009-.002a.023.023 0 0 1-.007-.007l-.003-.007v-.007l.004-.007.006-.005 1.232-.712c.004-.003.01-.003.015-.002s.009.005.012.009c.003.004.003.01.002.015s-.005.009-.009.012l-1.233.711c-.003.002-.006.002-.01.002z"/><path fill="#e0e0e0" style="fill:var(--color1,#e0e0e0)" d="M10.246 8.954c-.003 0-.007-.001-.009-.003l-.007-.007-.002-.007.001-.008.003-.007.006-.005 1.232-.711.007-.003h.007l.007.003c.002.001.003.004.004.006l.003.007v.007l-.003.007a.012.012 0 0 1-.005.005l-1.233.712c-.003.002-.006.002-.01.002zM10.246 9.133l-.009-.002c-.003-.001-.005-.004-.007-.007l-.002-.007.001-.008.003-.007.006-.005 1.232-.711.007-.003h.007l.007.003a.012.012 0 0 1 .005.005l.003.007v.007l-.003.007a.012.012 0 0 1-.005.005l-1.233.711a.012.012 0 0 1-.01.002zM10.246 9.315l-.009-.002a.023.023 0 0 1-.007-.007l-.003-.007v-.007l.004-.007.006-.005 1.232-.712c.004-.002.009-.003.014-.002s.009.004.011.009l.003.007v.007l-.003.007a.012.012 0 0 1-.005.005l-1.233.712c-.003.002-.006.002-.01.002z"/><path fill="#455a64" style="fill:var(--color5,#455a64)" d="M10.246 10.552c-.003 0-.007-.001-.009-.003l-.007-.007-.003-.007v-.007l.004-.007.006-.005 1.232-.712c.004-.002.009-.003.014-.002s.009.004.011.009l.003.007v.007l-.003.007a.012.012 0 0 1-.005.005l-1.233.712c-.003.002-.006.002-.01.002z"/><path fill="#e0e0e0" style="fill:var(--color1,#e0e0e0)" d="m10.246 10.731-.009-.003a.023.023 0 0 1-.007-.007l-.002-.007.001-.008.003-.007.006-.005 1.232-.711.007-.003h.007l.007.003c.002.001.003.004.004.006l.003.007v.007l-.003.007a.012.012 0 0 1-.005.005l-1.233.712c-.003.002-.006.002-.01.002zM10.246 10.913c-.003 0-.007-.001-.009-.003l-.007-.007-.002-.007.001-.007.003-.007a.01.01 0 0 1 .006-.005l1.232-.711.007-.003h.007l.007.003a.012.012 0 0 1 .005.005l.003.007v.007l-.003.007a.012.012 0 0 1-.005.005l-1.233.711c-.003.002-.006.002-.01.002zM10.246 11.088c-.003 0-.007-.001-.009-.003l-.007-.007-.003-.007v-.007l.004-.007.006-.004 1.232-.712c.004-.002.009-.003.014-.002s.009.004.011.009l.003.007v.007l-.003.007a.012.012 0 0 1-.005.005l-1.233.712c-.003.002-.006.002-.01.002z"/><path fill="#455a64" style="fill:var(--color5,#455a64)" d="m4.448 15.509-.01-.002c-.003-.001-.005-.004-.007-.006l-.002-.007v-.008l.003-.007a.01.01 0 0 1 .006-.005l1.232-.711.007-.003h.008l.007.003.005.005c.001.002.003.01.002.015s-.005.009-.009.012l-1.228.711c-.004.002-.009.003-.014.002z"/><path fill="#e0e0e0" style="fill:var(--color1,#e0e0e0)" d="M4.448 15.688c-.003 0-.007-.001-.01-.003l-.007-.007-.002-.007.001-.007.003-.007a.01.01 0 0 1 .006-.005l1.232-.712c.005-.002.01-.003.015-.002s.009.004.012.009c.002.004.003.009.002.014s-.004.009-.009.011l-1.228.712-.014.002zM4.448 15.866c-.003 0-.007-.001-.01-.003l-.007-.007-.002-.007v-.008l.003-.007a.01.01 0 0 1 .006-.005l1.232-.711.007-.002.008.001.007.003c.002.001.004.003.005.006s.003.009.002.014a.014.014 0 0 1-.009.011l-1.228.714a.033.033 0 0 1-.014 0zM4.448 16.045c-.004 0-.008-.002-.011-.004s-.005-.006-.006-.01-.001-.008.001-.012.004-.007.007-.009l1.232-.711.007-.003h.007l.007.003.005.005c.001.002.003.01.002.015s-.004.009-.009.012l-1.228.711-.014.002z"/><path fill="#455a64" style="fill:var(--color5,#455a64)" d="M18.789 2.206v9.737a.503.503 0 0 1-.234.405l-6.225 3.595a.142.142 0 0 1-.08.022.15.15 0 0 1-.03 0l-.02-.007-.013-.006-.014-.01a.188.188 0 0 1-.056-.072.301.301 0 0 1-.025-.118V6.063a.518.518 0 0 1 .234-.405l6.225-3.588a.166.166 0 0 1 .159-.02.082.082 0 0 1 .02.012c.021.018.037.04.046.065s.013.052.01.079z"/><path fill="#455a64" style="fill:var(--color5,#455a64)" d="M18.658 2.118c.007 0 .015.001.022.005h.004s.025.021.025.08v9.74a.434.434 0 0 1-.195.336l-6.224 3.595a.081.081 0 0 1-.038.012h-.018l-.006-.005h-.005l-.004-.004a.121.121 0 0 1-.024-.035.21.21 0 0 1-.018-.085V6.063a.44.44 0 0 1 .195-.335l6.225-3.587a.131.131 0 0 1 .064-.021h-.003zm.004-.08a.21.21 0 0 0-.104.031l-6.225 3.588a.512.512 0 0 0-.234.405v9.682c0 .041.008.081.025.118.01.023.025.044.043.062l.013.011.014.01.013.006a.068.068 0 0 0 .02.007.15.15 0 0 0 .03 0 .16.16 0 0 0 .074-.022l6.225-3.595a.521.521 0 0 0 .234-.405v-9.73a.161.161 0 0 0-.057-.142.114.114 0 0 0-.073-.023l.003-.003z"/><path fill="#455a64" style="fill:var(--color5,#455a64)" opacity=".64" d="M18.789 2.206v9.737a.503.503 0 0 1-.234.405l-6.225 3.595a.142.142 0 0 1-.08.022.15.15 0 0 1-.03 0l-.02-.007-.013-.006-.014-.01a.188.188 0 0 1-.056-.072.301.301 0 0 1-.025-.118V6.063a.518.518 0 0 1 .234-.405l6.225-3.588a.166.166 0 0 1 .159-.02.082.082 0 0 1 .02.012c.021.018.037.04.046.065s.013.052.01.079z"/><path fill="#4caf4f" style="fill:var(--color6,#4caf4f)" d="M18.712 2.046c-.026-.01-.055-.014-.082-.01s-.055.014-.077.03l-6.225 3.588a.512.512 0 0 0-.234.405v.764l-.298-.175v-.759a.516.516 0 0 1 .233-.404l6.225-3.588c.024-.018.053-.029.083-.031s.06.004.087.018c.045.028.239.14.288.162z"/><path fill="#fff" style="fill:var(--color7,#fff)" opacity=".16" d="m18.554 2.069-6.225 3.587a.483.483 0 0 0-.165.174l-.296-.173a.466.466 0 0 1 .16-.17l6.225-3.588a.165.165 0 0 1 .17-.015c.041.026.236.137.285.16-.026-.009-.053-.011-.08-.007s-.052.014-.074.03z"/><path fill="#37474f" style="fill:var(--color3,#37474f)" d="m12.182 15.94-.03-.017a.84.84 0 0 0-.072-.041l-.039-.022-.061-.035-.052-.03-.029-.016a.175.175 0 0 1-.072-.08.278.278 0 0 1-.026-.123V6.651l.298.175v8.917c.001.041.01.081.025.118.01.023.025.044.043.061a.028.028 0 0 0 .013.011l.002.006z"/><path fill="#4caf4f" style="fill:var(--color6,#4caf4f)" d="M12.681 7.151c0-.011.003-.022.009-.032l.125-.259a.013.013 0 0 1 .006-.007l.002-.002.003-.001.003.001.002.002c.003.003.004.008.004.012v.087a.122.122 0 0 1 0 .027c0 .006-.005.014-.009.023l-.066.137.066.061a.042.042 0 0 1 .009.014.096.096 0 0 1 0 .024v.081c0 .006-.002.012-.004.018s-.006.009-.01.012h-.006l-.123-.109c-.003-.003-.006-.006-.007-.01l-.002-.012-.002-.066zM13.138 6.503c.002-.009.005-.017.009-.026s.011-.015.018-.019l.047-.027h.01c.002.002.003.003.003.005l.001.006v.01l-.215.913c-.002.009-.005.017-.009.025s-.011.016-.019.021l-.045.026-.005.002-.005-.002-.004-.006-.001-.007v-.01l.214-.912zM13.469 6.759a.066.066 0 0 1-.009.033l-.125.258-.006.008-.005.002a.008.008 0 0 1-.005-.002.015.015 0 0 1 0-.013v-.087a.113.113 0 0 1 0-.026c.002-.008.006-.016.01-.024l.066-.137-.066-.06a.071.071 0 0 1-.01-.014.096.096 0 0 1 0-.024v-.087a.054.054 0 0 1 0-.018.03.03 0 0 1 .01-.012l.003-.001.003.001.125.114c.003.003.006.006.007.01l.002.012v.066zM13.816 6.7l.006-.002a.01.01 0 0 1 .006.002c.004.005.005.01.005.016v.095c0 .007-.002.015-.005.022s-.007.011-.013.015l-.058.034c-.002.002-.004.002-.006.002l-.006-.002-.005-.007-.001-.008v-.096c0-.008.002-.015.006-.022a.024.024 0 0 1 .012-.014l.058-.034zM14.013 6.587l.006-.002.006.002c.004.005.005.01.005.016v.095c0 .007-.002.015-.005.022s-.007.011-.012.014l-.059.034-.006.002-.006-.002a.024.024 0 0 1-.005-.016v-.095c0-.007.002-.015.005-.022s.007-.011.012-.015l.059-.034zM14.21 6.473c.002-.002.004-.002.006-.002l.006.002.004.007.001.008v.096c0 .007-.002.015-.005.022s-.007.011-.013.014l-.058.034-.006.002-.006-.002-.005-.007-.001-.009v-.095c0-.008.002-.015.006-.022a.035.035 0 0 1 .012-.015l.058-.034zM12.734 7.847l4.033-2.326c.034-.019.061-.006.061.031-.002.021-.008.041-.019.058s-.025.033-.043.044l-4.03 2.326c-.034.02-.062.006-.062-.031a.126.126 0 0 1 .059-.102z"/><path fill="#c8e6c9" style="fill:var(--color9,#c8e6c9)" d="m13.66 8.916 4.03-2.326c.034-.019.062-.006.062.031a.137.137 0 0 1-.062.103L13.66 9.05c-.034.019-.061.006-.061-.031.001-.021.008-.041.018-.059s.025-.033.043-.044zM13.66 9.451l2.525-1.457c.034-.02.062-.006.062.031a.137.137 0 0 1-.062.103L13.66 9.585c-.034.019-.061.006-.061-.031.001-.021.008-.041.018-.059s.025-.033.043-.044zM13.66 9.986l2.525-1.457c.034-.02.062-.006.062.031a.137.137 0 0 1-.062.103L13.66 10.12c-.034.02-.061.006-.061-.031.001-.021.008-.041.018-.059s.025-.033.043-.044z"/><path fill="#4caf4f" style="fill:var(--color6,#4caf4f)" d="m17.007 5.383 1.15-.666c.034-.019.062-.006.062.031-.001.021-.008.041-.018.059s-.025.033-.043.044l-1.15.666c-.034.019-.062.006-.062-.031.001-.021.008-.041.018-.059s.025-.033.043-.044zM13.731 13.159l3.036-1.757c.034-.02.061-.006.061.031-.002.021-.008.041-.019.058s-.025.033-.043.044l-3.036 1.757c-.034.019-.061.006-.061-.031.002-.021.008-.041.019-.058s.025-.033.043-.044zM17.007 11.262l1.147-.669c.034-.02.061-.006.061.031a.13.13 0 0 1-.061.103l-1.147.665c-.034.02-.062.006-.062-.031.002-.02.009-.039.019-.057s.025-.032.042-.042zM14.246 11.248l3.907-2.253c.034-.019.061-.006.061.031a.13.13 0 0 1-.061.103l-3.907 2.253c-.034.019-.062.006-.062-.032.002-.021.008-.041.019-.058s.025-.033.043-.044zM13.266 12.367l4.888-2.837c.034-.019.061-.006.061.031a.13.13 0 0 1-.061.103l-4.888 2.837c-.034.02-.062.006-.062-.031a.137.137 0 0 1 .062-.103z"/><path fill="#e8f5e9" style="fill:var(--color10,#e8f5e9)" d="m13.496 12.759 3.271-1.893c.034-.019.061-.006.061.031a.137.137 0 0 1-.062.103l-3.269 1.893c-.034.019-.061.006-.061-.031a.126.126 0 0 1 .059-.103z"/><path fill="#4caf4f" style="fill:var(--color6,#4caf4f)" d="m13.266 11.813.646-.373c.034-.02.061-.006.061.031a.137.137 0 0 1-.062.103l-.646.373c-.034.02-.062.006-.062-.031.001-.021.008-.041.018-.059s.025-.033.043-.044zM12.734 8.383l2.827-1.633c.034-.02.062-.006.062.031a.137.137 0 0 1-.062.103l-2.827 1.633c-.034.02-.061.006-.061-.031a.13.13 0 0 1 .061-.103z"/><path fill="#fff" style="fill:var(--color7,#fff)" opacity=".6" d="m12.734 8.383 2.827-1.633c.034-.02.062-.006.062.031a.137.137 0 0 1-.062.103l-2.827 1.633c-.034.02-.061.006-.061-.031a.13.13 0 0 1 .061-.103z"/><path fill="#4caf4f" style="fill:var(--color6,#4caf4f)" d="m12.734 8.916.571-.33c.034-.02.061-.006.061.031-.002.021-.008.041-.019.058s-.025.033-.043.044l-.571.33c-.034.02-.061.006-.061-.031a.13.13 0 0 1 .061-.103z"/><path fill="#fff" style="fill:var(--color7,#fff)" opacity=".6" d="m12.734 8.916.571-.33c.034-.02.061-.006.061.031-.002.021-.008.041-.019.058s-.025.033-.043.044l-.571.33c-.034.02-.061.006-.061-.031a.13.13 0 0 1 .061-.103z"/><path fill="#4caf4f" style="fill:var(--color6,#4caf4f)" d="m12.734 9.451.571-.33c.034-.02.061-.006.061.031-.002.021-.008.041-.019.058s-.025.033-.043.044l-.571.33c-.034.02-.061.006-.061-.031a.13.13 0 0 1 .061-.103z"/><path fill="#fff" style="fill:var(--color7,#fff)" opacity=".6" d="m12.734 9.451.571-.33c.034-.02.061-.006.061.031-.002.021-.008.041-.019.058s-.025.033-.043.044l-.571.33c-.034.02-.061.006-.061-.031a.13.13 0 0 1 .061-.103z"/><path fill="#4caf4f" style="fill:var(--color6,#4caf4f)" d="m12.734 9.986.571-.33c.034-.02.061-.006.061.031-.002.021-.008.041-.019.058s-.025.033-.043.044l-.571.33c-.034.02-.061.006-.061-.031a.13.13 0 0 1 .061-.102z"/><path fill="#fff" style="fill:var(--color7,#fff)" opacity=".6" d="m12.734 9.986.571-.33c.034-.02.061-.006.061.031-.002.021-.008.041-.019.058s-.025.033-.043.044l-.571.33c-.034.02-.061.006-.061-.031a.13.13 0 0 1 .061-.102z"/><path fill="#4caf4f" style="fill:var(--color6,#4caf4f)" d="m12.734 10.52.571-.33c.034-.02.061-.006.061.031-.002.021-.008.041-.019.058s-.025.033-.043.044l-.571.33c-.034.02-.061.006-.061-.031.002-.021.008-.041.018-.059s.025-.033.043-.044z"/><path fill="#fff" style="fill:var(--color7,#fff)" opacity=".6" d="m12.734 10.52.571-.33c.034-.02.061-.006.061.031-.002.021-.008.041-.019.058s-.025.033-.043.044l-.571.33c-.034.02-.061.006-.061-.031.002-.021.008-.041.018-.059s.025-.033.043-.044z"/><path fill="#c8e6c9" style="fill:var(--color9,#c8e6c9)" d="m13.66 13.746 2.525-1.457c.034-.02.062-.006.062.031-.002.021-.008.041-.019.058s-.025.033-.043.044l-2.525 1.457c-.034.02-.061.006-.061-.031.001-.021.008-.041.018-.059s.025-.033.043-.044zM13.66 14.28l2.525-1.457c.034-.02.062-.006.062.031-.001.021-.008.041-.018.059s-.025.033-.043.044l-2.525 1.457c-.034.02-.061.006-.061-.031.002-.021.008-.041.018-.059s.025-.033.043-.044zM16.553 12.076l1.587-.913c.034-.019.061-.006.061.031-.001.021-.008.041-.018.059s-.025.033-.043.044l-1.587.912c-.034.02-.061.006-.061-.031.002-.021.008-.041.019-.058s.025-.033.043-.044zM16.553 12.611l1.587-.913c.034-.019.061-.006.061.032-.002.021-.008.041-.018.059s-.025.033-.043.044l-1.587.912c-.034.02-.061.006-.061-.031.002-.021.008-.041.019-.058s.025-.033.043-.044z"/><path fill="#4caf4f" style="fill:var(--color6,#4caf4f)" d="m12.734 14.28.571-.33c.034-.02.061-.006.061.031-.002.021-.008.041-.019.058s-.025.033-.043.044l-.571.33c-.034.02-.061.006-.061-.031.002-.021.008-.041.018-.059s.025-.033.043-.044z"/><path fill="#fff" style="fill:var(--color7,#fff)" opacity=".6" d="m12.734 14.28.571-.33c.034-.02.061-.006.061.031-.002.021-.008.041-.019.058s-.025.033-.043.044l-.571.33c-.034.02-.061.006-.061-.031.002-.021.008-.041.018-.059s.025-.033.043-.044z"/><path fill="#4caf4f" style="fill:var(--color6,#4caf4f)" d="m12.734 14.815.571-.33c.034-.019.061-.006.061.031-.002.021-.008.041-.019.058s-.025.033-.043.044l-.571.331c-.034.019-.061.006-.061-.031.001-.021.008-.041.018-.059s.025-.033.043-.044z"/><path fill="#fff" style="fill:var(--color7,#fff)" opacity=".6" d="m12.734 14.815.571-.33c.034-.019.061-.006.061.031-.002.021-.008.041-.019.058s-.025.033-.043.044l-.571.331c-.034.019-.061.006-.061-.031.001-.021.008-.041.018-.059s.025-.033.043-.044z"/><path fill="#4caf4f" style="fill:var(--color6,#4caf4f)" d="m15.801 6.612.732-.421c.034-.02.062-.006.062.031-.002.021-.008.041-.019.058s-.025.033-.043.044l-.732.421c-.034.02-.062.006-.062-.031a.137.137 0 0 1 .062-.103z"/><path fill="#fff" style="fill:var(--color7,#fff)" opacity=".6" d="m15.801 6.612.732-.421c.034-.02.062-.006.062.031-.002.021-.008.041-.019.058s-.025.033-.043.044l-.732.421c-.034.02-.062.006-.062-.031a.137.137 0 0 1 .062-.103z"/><path fill="#e8f5e9" style="fill:var(--color10,#e8f5e9)" d="m13.616 10.541 3.566-2.055c.034-.02.061-.006.061.031-.002.021-.008.041-.019.058s-.025.033-.043.044l-3.566 2.055c-.034.02-.061.006-.061-.031a.133.133 0 0 1 .062-.101zM12.734 11.598l5.419-3.136c.034-.02.061-.006.061.031a.13.13 0 0 1-.061.103l-5.419 3.136c-.034.02-.061.006-.061-.031a.13.13 0 0 1 .061-.103zM17.421 8.347l.732-.421c.034-.02.062-.006.062.031a.13.13 0 0 1-.061.103l-.732.422c-.034.019-.061.006-.061-.032.002-.021.008-.041.018-.059s.025-.033.043-.044z"/><path fill="#4caf4f" style="fill:var(--color6,#4caf4f)" d="m13.66 8.382 2.827-1.633c.034-.02.062-.006.062.031a.137.137 0 0 1-.062.103L13.66 8.517c-.034.02-.062.006-.062-.031a.132.132 0 0 1 .063-.103z"/><path fill="#fff" style="fill:var(--color7,#fff)" opacity=".6" d="m13.66 8.382 2.827-1.633c.034-.02.062-.006.062.031a.137.137 0 0 1-.062.103L13.66 8.517c-.034.02-.062.006-.062-.031a.132.132 0 0 1 .063-.103z"/><path fill="#4caf4f" style="fill:var(--color6,#4caf4f)" d="m16.727 6.611.732-.421c.034-.02.061-.006.061.031-.002.021-.008.041-.019.058s-.025.033-.043.044l-.732.421c-.034.02-.062.006-.062-.031a.137.137 0 0 1 .062-.103z"/><path fill="#fff" style="fill:var(--color7,#fff)" opacity=".6" d="m16.727 6.611.732-.421c.034-.02.061-.006.061.031-.002.021-.008.041-.019.058s-.025.033-.043.044l-.732.421c-.034.02-.062.006-.062-.031a.137.137 0 0 1 .062-.103z"/><path fill="#103e13" style="fill:var(--color2,#103e13)" opacity=".1" d="m3.906 17.9-2.288 1.32a.209.209 0 0 0-.092.16v2.758c0 .058.042.08.092.053l2.288-1.318a.204.204 0 0 0 .092-.16v-2.761c0-.058-.042-.081-.092-.053zM3.257 12.424l-1.689.973c-.012.008-.023.019-.03.031s-.012.027-.012.041v.943c0 .027.019.037.042.024l1.689-.973a.09.09 0 0 0 .042-.072v-.943c0-.026-.019-.037-.042-.024zM3.257 14.383l-1.689.973c-.012.008-.023.019-.03.031s-.012.027-.012.041v.943c0 .026.019.038.042.024l1.689-.973c.012-.008.023-.019.03-.031s.012-.027.012-.041v-.943c0-.026-.019-.038-.042-.024zM3.257 16.345l-1.689.971c-.012.008-.023.019-.03.031s-.012.027-.012.041v.943c0 .026.019.038.042.024l1.689-.971c.012-.008.023-.019.03-.031s.012-.027.012-.041v-.943c0-.029-.019-.039-.042-.023z"/><path fill="#4caf4f" style="fill:var(--color6,#4caf4f)" d="m4.19 18.011-2.285 1.318a.209.209 0 0 0-.092.16v2.758a.204.204 0 0 0 .091.16l.174.098c.029.014.06.022.092.022s.063-.007.092-.022l2.289-1.318a.204.204 0 0 0 .092-.16v-2.765c-.002-.032-.011-.063-.027-.091s-.039-.051-.066-.069l-.173-.098a.204.204 0 0 0-.187.006z"/><path fill="#103e13" style="fill:var(--color2,#103e13)" opacity=".2" d="M2.259 22.5a.21.21 0 0 1-.184 0l-.171-.098a.198.198 0 0 1-.092-.16v-2.755a.193.193 0 0 1 .03-.093l.356.206a.179.179 0 0 0-.027.09v2.758c-.003.054.034.084.089.053z"/><path fill="#fff" style="fill:var(--color7,#fff)" opacity=".5" d="M4.638 18.249c-.007-.046-.045-.063-.09-.037L2.26 19.531a.193.193 0 0 0-.065.068l-.356-.206a.179.179 0 0 1 .063-.065L4.19 18.01c.029-.014.06-.022.092-.022s.063.007.092.022l.173.098a.195.195 0 0 1 .091.14z"/><path fill="#4caf4f" style="fill:var(--color6,#4caf4f)" d="M4.548 18.213 2.26 19.532a.209.209 0 0 0-.092.16v2.758c0 .058.042.08.092.053l2.288-1.318a.204.204 0 0 0 .091-.16v-2.762c0-.055-.041-.08-.091-.05z"/><path fill="#fff" style="fill:var(--color7,#fff)" d="M2.319 20.959a.14.14 0 0 1 .01-.057.41.41 0 0 1 .03-.054l.539-.872.009-.01.006-.005c.003-.002.006-.004.01-.004s.007.001.01.004l.007.012a.022.022 0 0 1 .001.014v.337a.14.14 0 0 1-.015.07.434.434 0 0 1-.028.046l-.24.363.24.093c.01.003.019.007.028.013.01.006.015.024.015.052v.337a.09.09 0 0 1-.008.036.052.052 0 0 1-.02.024h-.006a.014.014 0 0 1-.009 0l-.539-.249a.083.083 0 0 1-.03-.02.079.079 0 0 1-.01-.045v-.085zM3.496 19.48c.005-.019.011-.037.02-.054s.022-.033.039-.042l.181-.105c.003-.003.007-.004.011-.004s.008.001.011.004c.003.004.006.008.007.013l.002.014a.067.067 0 0 1 0 .02l-.456 1.944a.21.21 0 0 1-.019.053.095.095 0 0 1-.04.044l-.177.102c-.003.003-.007.004-.01.004s-.007-.001-.01-.004c-.003-.004-.006-.008-.007-.013l-.002-.014a.067.067 0 0 1 0-.02l.452-1.942zM4.488 19.794a.16.16 0 0 1-.01.057.554.554 0 0 1-.03.053l-.54.872a.04.04 0 0 1-.008.01l-.006.005c-.008.005-.015.005-.02 0l-.007-.012a.022.022 0 0 1-.001-.014v-.336a.143.143 0 0 1 .015-.07.717.717 0 0 1 .027-.046l.24-.364-.24-.09a.087.087 0 0 1-.027-.014c-.01-.007-.015-.025-.015-.052v-.337a.09.09 0 0 1 .008-.036.052.052 0 0 1 .02-.024h.014l.54.249a.083.083 0 0 1 .03.02.079.079 0 0 1 .01.045v.085z"/><path fill="#4caf4f" style="fill:var(--color6,#4caf4f)" d="m3.543 12.53-1.689.974a.09.09 0 0 0-.042.072v.943c.001.014.005.029.012.041s.018.023.03.031l.167.095a.093.093 0 0 0 .08 0l1.694-.977c.012-.008.022-.019.029-.032s.011-.027.012-.041v-.943c-.001-.014-.005-.029-.012-.041s-.018-.023-.03-.031l-.166-.095a.1.1 0 0 0-.085.003z"/><path fill="#103e13" style="fill:var(--color2,#103e13)" opacity=".4" d="m3.543 12.53-1.689.974a.09.09 0 0 0-.042.072v.943c.001.014.005.029.012.041s.018.023.03.031l.167.095a.093.093 0 0 0 .08 0l1.694-.977c.012-.008.022-.019.029-.032s.011-.027.012-.041v-.943c-.001-.014-.005-.029-.012-.041s-.018-.023-.03-.031l-.166-.095a.1.1 0 0 0-.085.003z"/><path fill="#4caf4f" style="fill:var(--color6,#4caf4f)" d="M3.836 12.689c0-.021-.02-.028-.042-.016l-1.689.973a.09.09 0 0 0-.03.031l-.251-.144a.083.083 0 0 1 .029-.03l1.689-.973c.013-.006.028-.01.042-.01s.029.003.042.01l.166.095a.09.09 0 0 1 .042.064z"/><path fill="#4caf4f" style="fill:var(--color6,#4caf4f)" d="m3.795 12.671-1.69.975c-.012.008-.022.019-.03.031s-.011.027-.012.041v.943c0 .026.018.038.042.024l1.69-.976c.012-.008.022-.019.03-.031s.011-.027.012-.041v-.943c0-.023-.014-.034-.042-.023z"/><path fill="#103e13" style="fill:var(--color2,#103e13)" opacity=".04" d="m3.795 12.671-1.69.975c-.012.008-.022.019-.03.031s-.011.027-.012.041v.943c0 .026.018.038.042.024l1.69-.976c.012-.008.022-.019.03-.031s.011-.027.012-.041v-.943c0-.023-.014-.034-.042-.023z"/><path fill="#f5f7fa" style="fill:var(--color8,#f5f7fa)" d="M2.481 13.887v.14c.001.011.002.023.005.034a.055.055 0 0 0 .012.024.035.035 0 0 0 .021.01.063.063 0 0 0 .03-.01.089.089 0 0 0 .03-.024c.008-.008.014-.017.019-.027s.009-.018.012-.028c0-.01.005-.018.006-.025s.003-.015.006-.022a.033.033 0 0 1 .013-.013l.07-.041h.008l.003.005.001.006a.33.33 0 0 1-.014.088.46.46 0 0 1-.089.16.244.244 0 0 1-.066.054.144.144 0 0 1-.07.022.082.082 0 0 1-.052-.018.109.109 0 0 1-.033-.053.312.312 0 0 1-.014-.08v-.148c.001-.032.006-.063.013-.094s.019-.062.034-.091a.355.355 0 0 1 .052-.08.261.261 0 0 1 .07-.058.157.157 0 0 1 .066-.022c.018-.001.037.003.053.013s.029.026.036.044a.196.196 0 0 1 .014.072.026.026 0 0 1-.004.015c-.002.004-.004.008-.008.01l-.07.041c-.006 0-.01.004-.013 0s-.005-.01-.006-.015c0-.006 0-.012-.006-.018-.003-.006-.007-.011-.012-.014s-.012-.005-.019-.005a.064.064 0 0 0-.03.011c-.012.006-.022.015-.03.026s-.016.021-.021.033a.13.13 0 0 0-.012.038.312.312 0 0 0-.005.044zM2.943 13.393a.144.144 0 0 1 .063-.022.096.096 0 0 1 .05.01c.014.008.025.02.033.034s.012.032.012.049v.014a.016.016 0 0 1-.008.01l-.07.041a.029.029 0 0 1-.013 0l-.009-.005-.006-.006a.02.02 0 0 0-.01-.006.049.049 0 0 0-.017 0c-.008.001-.016.004-.023.009l-.02.014-.017.016a.082.082 0 0 0-.012.02.059.059 0 0 0-.004.023.024.024 0 0 0 .005.018l.008.005.009.001a.113.113 0 0 0 .032-.005l.05-.013a.151.151 0 0 1 .052-.006c.013 0 .026.005.037.014a.07.07 0 0 1 .022.037.273.273 0 0 1-.006.143c-.008.028-.02.055-.034.08s-.033.047-.054.066a.324.324 0 0 1-.066.051.159.159 0 0 1-.067.024c-.017.002-.035-.001-.05-.009s-.028-.021-.036-.036a.13.13 0 0 1-.013-.055c0-.005.002-.01.004-.015.001-.004.004-.007.007-.01l.071-.041c.003-.003.008-.004.012-.004.003 0 .006.002.008.004l.007.006a.031.031 0 0 0 .011.009.028.028 0 0 0 .018 0 .052.052 0 0 0 .027-.01.22.22 0 0 0 .048-.037.064.064 0 0 0 .019-.046l-.001-.009a.013.013 0 0 0-.006-.007.037.037 0 0 0-.021 0 .229.229 0 0 0-.036.007l-.052.014a.079.079 0 0 1-.08-.014.151.151 0 0 1-.026-.099.307.307 0 0 1 .04-.149.275.275 0 0 1 .108-.115zM3.331 13.167a.143.143 0 0 1 .063-.021c.017-.001.034.002.05.01s.026.02.034.034a.104.104 0 0 1 .012.049v.014a.02.02 0 0 1-.008.01l-.071.041h-.012a.03.03 0 0 1-.01-.004l-.005-.006a.02.02 0 0 0-.01-.006.049.049 0 0 0-.017 0 .067.067 0 0 0-.023.01c-.007.004-.014.008-.02.014l-.017.016c-.005.006-.009.013-.012.02s-.005.015-.005.023a.03.03 0 0 0 .006.018l.008.005.009.001a.126.126 0 0 0 .033-.005l.05-.013a.128.128 0 0 1 .051-.006.06.06 0 0 1 .038.014c.01.01.018.023.022.037a.273.273 0 0 1-.005.144.347.347 0 0 1-.154.195.18.18 0 0 1-.067.024.086.086 0 0 1-.052-.01.079.079 0 0 1-.034-.036.113.113 0 0 1-.013-.054.038.038 0 0 1 0-.015.04.04 0 0 1 .008-.01l.071-.041c.005 0 .009-.005.011 0a.014.014 0 0 1 .009 0l.006.007a.034.034 0 0 0 .012.009.028.028 0 0 0 .018 0 .063.063 0 0 0 .027-.01.196.196 0 0 0 .048-.038.064.064 0 0 0 .019-.046l-.001-.009a.013.013 0 0 0-.006-.007.037.037 0 0 0-.021 0 .229.229 0 0 0-.036.007l-.052.013c-.013.005-.028.006-.042.004s-.027-.008-.038-.018a.142.142 0 0 1-.026-.1.32.32 0 0 1 .041-.148.322.322 0 0 1 .048-.068.292.292 0 0 1 .063-.048z"/><path fill="#4caf4f" style="fill:var(--color6,#4caf4f)" d="m3.543 14.489-1.689.977c-.012.008-.022.019-.03.031s-.012.027-.013.041v.943c.001.015.005.029.012.041s.018.023.03.031l.167.094a.093.093 0 0 0 .08 0l1.69-.973c.012-.008.022-.019.029-.032s.011-.027.012-.041v-.943c-.001-.015-.005-.029-.012-.041s-.018-.023-.03-.031l-.166-.094a.096.096 0 0 0-.081-.004z"/><path fill="#103e13" style="fill:var(--color2,#103e13)" opacity=".4" d="m3.543 14.489-1.689.977c-.012.008-.022.019-.03.031s-.012.027-.013.041v.943c.001.015.005.029.012.041s.018.023.03.031l.167.094a.093.093 0 0 0 .08 0l1.69-.973c.012-.008.022-.019.029-.032s.011-.027.012-.041v-.943c-.001-.015-.005-.029-.012-.041s-.018-.023-.03-.031l-.166-.094a.096.096 0 0 0-.081-.004z"/><path fill="#4caf4f" style="fill:var(--color6,#4caf4f)" d="M3.836 14.648c0-.021-.02-.029-.042-.017l-1.689.974a.09.09 0 0 0-.03.031l-.251-.144a.083.083 0 0 1 .029-.03l1.689-.973c.013-.007.028-.01.042-.01s.029.003.042.01l.167.098a.089.089 0 0 1 .041.061z"/><path fill="#4caf4f" style="fill:var(--color6,#4caf4f)" d="m3.795 14.632-1.69.974a.088.088 0 0 0-.042.072v.943c0 .026.018.038.042.024l1.69-.973c.012-.008.022-.019.029-.031s.011-.027.012-.041v-.943c0-.027-.014-.038-.042-.025z"/><path fill="#103e13" style="fill:var(--color2,#103e13)" opacity=".04" d="m3.795 14.632-1.69.974a.088.088 0 0 0-.042.072v.943c0 .026.018.038.042.024l1.69-.973c.012-.008.022-.019.029-.031s.011-.027.012-.041v-.943c0-.027-.014-.038-.042-.025z"/><path fill="#f5f7fa" style="fill:var(--color8,#f5f7fa)" d="m2.489 15.621.002-.002.003-.001.003.001.002.002.004.006.001.007v.537a.04.04 0 0 1-.015.03l-.07.041-.002.002-.003.001-.003-.001-.002-.002v-.217l-.12.07v.203a.037.037 0 0 1-.005.018.03.03 0 0 1-.01.013l-.071.041-.005.002a.008.008 0 0 1-.005-.002.017.017 0 0 1 0-.014v-.537a.054.054 0 0 1 0-.018c.002-.005.006-.009.01-.013l.071-.041.005-.002.005.002.004.006.001.007v.2l.12-.069v-.2a.054.054 0 0 1 0-.018.03.03 0 0 1 .01-.012l.07-.04zM2.883 15.394l.002-.002.003-.001.003.001.002.002a.015.015 0 0 1 0 .013v.106c-.001.006-.006.01-.01.013l-.095.055v.426a.041.041 0 0 1-.005.019c-.002.005-.006.009-.01.013l-.071.041-.005.002a.008.008 0 0 1-.005-.002.017.017 0 0 1 0-.014v-.426l-.095.054-.005.002a.008.008 0 0 1-.005-.002.023.023 0 0 1-.004-.014v-.088c0-.006.001-.013.004-.018s.006-.01.01-.013l.287-.168zM3.131 15.685a.036.036 0 0 1-.007-.01l-.051-.108v.275c0 .006-.001.013-.004.018s-.006.01-.01.013l-.07.041-.005.002a.008.008 0 0 1-.005-.002l-.001-.007.001-.007v-.536a.027.027 0 0 1 .01-.031l.062-.036h.016a.055.055 0 0 1 .007.009l.088.18.087-.28.007-.018a.035.035 0 0 1 .016-.018l.062-.036.002-.002.003-.001.003.001.002.002.001.006-.001.006v.537a.028.028 0 0 1 0 .018c-.002.005-.006.009-.01.013l-.07.041-.005.002a.008.008 0 0 1-.005-.002l-.001-.007.001-.007v-.276l-.051.166-.007.018a.03.03 0 0 1-.013.014l-.034.019c-.01.003-.014.004-.017.001zM3.716 15.362h.01l.004.006.001.007v.092a.037.037 0 0 1-.005.018.026.026 0 0 1-.01.013l-.25.144-.005.002a.008.008 0 0 1-.005-.002.017.017 0 0 1 0-.014v-.537a.054.054 0 0 1 0-.018.032.032 0 0 1 .01-.013l.07-.041.002-.002.003-.001.003.001.002.002.004.006.001.007v.427l.165-.097z"/><path fill="#4caf4f" style="fill:var(--color6,#4caf4f)" d="m3.543 16.449-1.689.973c-.012.008-.023.019-.03.031s-.012.027-.012.041v.943c.001.015.005.029.012.041s.018.023.03.031l.167.094a.093.093 0 0 0 .08 0l1.694-.973c.012-.008.022-.019.029-.032s.011-.027.012-.041v-.943c-.001-.015-.005-.029-.012-.041s-.018-.023-.03-.031l-.166-.094c-.013-.007-.028-.01-.042-.01s-.029.003-.042.01z"/><path fill="#103e13" style="fill:var(--color2,#103e13)" opacity=".4" d="m3.543 16.449-1.689.973c-.012.008-.023.019-.03.031s-.012.027-.012.041v.943c.001.015.005.029.012.041s.018.023.03.031l.167.094a.093.093 0 0 0 .08 0l1.694-.973c.012-.008.022-.019.029-.032s.011-.027.012-.041v-.943c-.001-.015-.005-.029-.012-.041s-.018-.023-.03-.031l-.166-.094c-.013-.007-.028-.01-.042-.01s-.029.003-.042.01z"/><path fill="#4caf4f" style="fill:var(--color6,#4caf4f)" d="M3.836 16.608c0-.021-.02-.029-.042-.017l-1.689.973a.102.102 0 0 0-.03.032l-.251-.145a.092.092 0 0 1 .029-.03l1.69-.973c.013-.007.028-.01.042-.01s.029.003.042.01l.166.095a.09.09 0 0 1 .042.064z"/><path fill="#4caf4f" style="fill:var(--color6,#4caf4f)" d="m3.795 16.591-1.69.973c-.012.008-.022.019-.029.031s-.011.027-.012.041v.945c0 .027.018.038.042.025l1.69-.975c.012-.008.022-.019.029-.031s.011-.027.012-.041v-.943c0-.027-.014-.038-.042-.025z"/><path fill="#103e13" style="fill:var(--color2,#103e13)" opacity=".04" d="m3.795 16.591-1.69.973c-.012.008-.022.019-.029.031s-.011.027-.012.041v.945c0 .027.018.038.042.025l1.69-.975c.012-.008.022-.019.029-.031s.011-.027.012-.041v-.943c0-.027-.014-.038-.042-.025z"/><path fill="#f5f7fa" style="fill:var(--color8,#f5f7fa)" d="M2.513 17.787v.14c.001.011.002.023.005.034a.055.055 0 0 0 .012.024.035.035 0 0 0 .021.01.063.063 0 0 0 .03-.01.1.1 0 0 0 .03-.024.27.27 0 0 0 .02-.027.136.136 0 0 0 .011-.028c0-.009.005-.018.006-.026s.003-.015.006-.022a.027.027 0 0 1 .013-.013l.07-.041.004-.002.004.002v.01a.422.422 0 0 1-.049.173.354.354 0 0 1-.12.127.14.14 0 0 1-.069.022.082.082 0 0 1-.052-.018.119.119 0 0 1-.034-.053.312.312 0 0 1-.014-.08v-.148a.427.427 0 0 1 .014-.094.426.426 0 0 1 .04-.09.379.379 0 0 1 .052-.08.261.261 0 0 1 .07-.058.157.157 0 0 1 .066-.022.085.085 0 0 1 .089.057.196.196 0 0 1 .014.087c-.001.005-.005.008-.009.01l-.07.041H2.66l-.006-.015c-.001-.005 0-.012-.006-.018-.002-.006-.006-.011-.011-.014s-.013-.005-.02-.005a.076.076 0 0 0-.03.01c-.011.007-.022.015-.03.026s-.015.022-.021.034a.24.24 0 0 0-.012.038.331.331 0 0 0-.012.042zM3.009 17.677v.155c-.001.006-.006.01-.01.013l-.068.039-.005.002a.008.008 0 0 1-.005-.002l-.001-.007.001-.007v-.137l-.08.048-.002.002-.003.001-.003-.001-.002-.002a.015.015 0 0 1 0-.013V17.666c.001-.006.006-.01.01-.013l.08-.048v-.142a.054.054 0 0 1 0-.018.03.03 0 0 1 .01-.012l.068-.04.005-.002.005.002a.017.017 0 0 1 0 .014v.137l.08-.048.005-.002.005.002.003.006.001.007v.084c0 .006-.001.013-.004.018l-.01.013-.08.053zM3.367 17.47v.137c0 .006-.002.013-.005.018s-.005.009-.01.012l-.069.039-.002.002-.003.001-.003-.001-.002-.002-.004-.006-.001-.007v-.137l-.08.049-.005.002a.008.008 0 0 1-.005-.002l-.004-.006-.001-.007v-.084c0-.006.002-.013.005-.018a.03.03 0 0 1 .01-.012l.08-.049v-.137c0-.006.002-.013.005-.018a.03.03 0 0 1 .01-.013l.069-.039.002-.002.003-.001.003.001.002.002.004.006.001.007v.137l.08-.048.002-.002.003-.001.003.001.002.002a.017.017 0 0 1 0 .014v.08a.054.054 0 0 1 0 .018.032.032 0 0 1-.01.013l-.08.052z"/><path fill="#333" style="fill:var(--color11,#333)" d="m22.176 5.368-1.399.808c-.014.01-.026.023-.035.038s-.014.032-.014.049v1.709a.108.108 0 0 0 .051.086l.198.113a.111.111 0 0 0 .1 0l1.399-.809c.014-.01.026-.022.035-.037s.014-.032.014-.049V5.567a.108.108 0 0 0-.051-.086l-.194-.113c-.016-.008-.034-.013-.052-.013s-.036.005-.052.013z"/><path fill="#333" style="fill:var(--color11,#333)" d="M21.076 8.171a.122.122 0 0 1-.1 0l-.198-.113a.108.108 0 0 1-.051-.086V6.263a.102.102 0 0 1 .016-.051l.298.171c-.01.016-.015.034-.015.006v1.709c0 .073.021.089.05.073z"/><path fill="#fff" style="fill:var(--color7,#fff)" opacity=".4" d="M22.524 5.561c-.004-.026-.024-.034-.049-.02l-1.399.809a.096.096 0 0 0-.035.037l-.299-.171a.11.11 0 0 1 .035-.036l1.399-.809a.108.108 0 0 1 .1 0l.198.113a.107.107 0 0 1 .05.077z"/><path fill="#37474f" style="fill:var(--color3,#37474f)" d="M20.59 7.531c-.032-.019-.271-.153-.278-.16a.044.044 0 0 1-.022-.033c-.001-.007 0-.014.002-.02s.005-.013.01-.018l.425-.487.299.172-.444.474c-.005.005-.008.011-.011.018s-.003.014-.002.02.003.013.007.019a.067.067 0 0 0 .014.015z"/><path fill="#fff" style="fill:var(--color7,#fff)" opacity=".4" d="M20.59 7.531c-.032-.019-.271-.153-.278-.16a.044.044 0 0 1-.022-.033c-.001-.007 0-.014.002-.02s.005-.013.01-.018l.425-.487.299.172-.444.474c-.005.005-.008.011-.011.018s-.003.014-.002.02.003.013.007.019a.067.067 0 0 0 .014.015z"/><path fill="#37474f" style="fill:var(--color3,#37474f)" d="m22.475 5.537-1.399.809a.108.108 0 0 0-.051.086v.554l-.444.474c-.007.006-.013.014-.015.023s-.002.019.001.027a.046.046 0 0 0 .043.03l.416-.03v.635c0 .032.022.045.05.029l1.399-.809c.014-.01.026-.022.035-.037s.014-.032.014-.049V5.57c0-.035-.022-.048-.05-.032z"/><path fill="#f5f7fa" style="fill:var(--color8,#f5f7fa)" d="m22.201 7.054-.287-.215.296-.566c.013-.025.016-.055.007-.082a.107.107 0 0 0-.135-.07.107.107 0 0 0-.063.053l-.28.534-.256-.193c-.011-.008-.024-.015-.038-.018s-.028-.004-.042-.002c-.014.002-.027.007-.04.014s-.023.017-.031.028-.015.024-.018.038c-.004.014-.004.028-.003.042s.007.027.014.04a.104.104 0 0 0 .028.031l.284.215-.284.542c-.013.025-.016.055-.007.082s.028.05.053.063a.11.11 0 0 0 .106-.003.105.105 0 0 0 .039-.042l.267-.51.256.193c.023.017.051.024.079.02s.054-.019.071-.041c.017-.022.025-.051.022-.079s-.018-.054-.04-.072z"/><path fill="#263238" style="fill:var(--color4,#263238)" d="M28.744 27.471a.688.688 0 0 1 .073.362c-.006.109-.071.252-.042.498s.086.325.113.499a.616.616 0 0 1-.097.464c-.102.166-.328.298-.773.282-.36-.013-.505-.197-.513-.409l1.239-1.697z"/><path fill="#37474f" style="fill:var(--color3,#37474f)" d="M28.642 26.961a.948.948 0 0 1 .022.14c.014.084.038.16.058.245l.015.065c.034.165 0 .336 0 .505.014.199.049.396.105.588.08.35.093.584-.213.826-.16.128-.338.132-.543.137a.859.859 0 0 1-.451-.109c-.131-.097-.129-.178-.13-.209-.012-.371.122-.804.149-1.174.01-.1.012-.2.006-.3-.013-.123-.055-.245-.069-.369a.21.21 0 0 1 .017-.137.218.218 0 0 1 .166-.074c.16-.022.326-.038.49-.05a.154.154 0 0 1 .111.022c.032.029.033.08.042.119s.039.089.08.08c.014-.004.025-.013.034-.024s.014-.025.015-.039a4.71 4.71 0 0 0 .015-.271c.003.002.061-.007.08.028zM24.756 26.95a.983.983 0 0 0-.043.093.74.74 0 0 1-.232.288c-.145.1-.301.185-.465.251-.104.046-.213.059-.32.096a1.757 1.757 0 0 0-.341.15c-.169.104-.201.383-.018.501.16.101.581.222 1.033.113.247-.059.527-.309.849-.32.204-.007.591-.049.729-.198.05-.223-.005-.286-.05-.479a1.553 1.553 0 0 1-.038-.326c0-.058.038-.223-.08-.24l-.012.124s-.023.042-.149.064c-.041.007-.073.061-.094.109s-.035.086-.08.085c-.014-.002-.027-.008-.038-.016s-.02-.02-.025-.033a.561.561 0 0 1-.023-.08.326.326 0 0 0-.191-.19 1.015 1.015 0 0 0-.224-.047c-.058-.009-.105-.034-.16.016a.17.17 0 0 0-.026.038z"/><path fill="#455a64" style="fill:var(--color5,#455a64)" d="M28.034 17.449c.08 1.22.122 1.93.34 5.259.161.57.263 1.154.304 1.745.043.737.148 2.956.148 2.956s-.594.487-1.278.262c0 0-.622-3.262-.839-4.28a39.537 39.537 0 0 1-.368-2.045l-.154 1.363s.027.606.008 1.511c-.01.484-.24 3.104-.24 3.104s-.833.379-1.396-.108c0 0-.041-4.249-.05-4.687-.01-.5.08-5.529.08-5.529l3.444.449z"/><path fill="#e8f5e9" style="fill:var(--color10,#e8f5e9)" d="M19.855 12.91a.134.134 0 0 0-.024-.053.24.24 0 0 1 .005-.239.282.282 0 0 0 .035-.057c.016-.044-.004-.093 0-.141.014-.21.395-.118.515-.08.035.012.24.065.32.093a1.074 1.074 0 0 1 .034-.343c.054-.218.234-.196.245-.062.01.121.032.24.067.356.022.085.08.17.113.296.047.16.035.249.195.399.24.226 1.47 1.06 1.47 1.06a52.126 52.126 0 0 1 1.939-1.169c.431-.234.65-.046.65-.046l-.375 1.383s-1.481.764-2.014.997c-.372.16-.537.07-.948-.296-.326-.308-.756-.754-1.22-1.165-.185-.165-.32-.248-.451-.255-.05 0-.099-.006-.148-.01-.11-.013-.24-.04-.293-.149-.018-.037-.027-.08-.042-.117-.023-.059-.06-.112-.08-.171-.016-.04-.022-.083-.016-.125 0-.034.029-.069.024-.107z"/><path fill="#c8e6c9" style="fill:var(--color9,#c8e6c9)" d="M20.56 12.559c.125.03.165.109.173.286.005.105.049.296.168.365a.276.276 0 0 1-.153-.054c-.058-.052-.073-.057-.101-.023a.18.18 0 0 1-.075.05.136.136 0 0 1 .023.16c-.049.094-.294.113-.502.022 0 0 .333.08.4-.029s-.113-.227-.24-.253c0 0 .32.053.361-.053s-.094-.176-.283-.21c0 0 .264.03.302-.062a.16.16 0 0 0-.074-.2z"/><path fill="#4caf4f" style="fill:var(--color6,#4caf4f)" d="M24.545 14.185c.047-.94.426-1.32.952-1.366l1.183-.08c.32.074 1.151.234 1.151.234.344.103.587 1.001.506 1.512s-.249.901-.296 1.761c.014.815.026.976.026 1.296-.736.467-2.713.565-3.49.096 0 0-.014-.788-.03-1.289a35.462 35.462 0 0 1-.002-2.164z"/><path fill="#37474f" style="fill:var(--color3,#37474f)" d="M24.855 10.196a.304.304 0 0 0-.153.27.402.402 0 0 0 .067.231.51.51 0 0 0 .272.177.717.717 0 0 1 .135.046c.054.039.105.082.152.129.073.056.145.113.219.168.147.11.301.211.461.302.154.088.314.163.479.225.175.065.32.008.507.025l-.027.506s.062-.117.133-.256c.062-.12.32-.73.32-.73.101-.24.229-.49.213-.758-.013-.216-.056-.407-.221-.498-.014-.249-.07-.371-.245-.504a.973.973 0 0 0-.432-.16 1.777 1.777 0 0 0-.525.018c-.259.042-.518.108-.78.094a1.256 1.256 0 0 0-.419.026c-.087.028-.163.084-.215.159s-.08.165-.078.256c-.006.095.07.252.137.272z"/><path fill="#e8f5e9" style="fill:var(--color10,#e8f5e9)" d="M26.495 10.261c0 .16.147.386.371.581-.026.148-.022.3.012.446a.468.468 0 0 0 .062.127.127.127 0 0 0 .093.059c.052 0 .073-.027.089-.068.024-.052.05-.102.08-.15a.28.28 0 0 1 .046-.057c.08-.073.311-.16.419.086s-.094.594-.281.646c-.32.09-.392-.129-.392-.129L27 12.868c-.09.27-.59.533-.993.479s-.275-.296-.111-.461l-.021-.37a1.59 1.59 0 0 1-.43-.016c-.167-.032-.304-.189-.374-.443a3.876 3.876 0 0 1-.048-1.479c.061-.3.135-.43.171-.465 0 .066.125.266.451.311.344.05.604-.059.852-.161z"/><path fill="#263238" style="fill:var(--color4,#263238)" d="M26.028 11.16c0 .021.007.042.018.059s.028.031.048.039a.11.11 0 0 0 .117-.023.108.108 0 0 0-.072-.185c-.014 0-.029.002-.042.008s-.026.013-.036.023c-.01.01-.019.022-.024.035s-.009.028-.009.042zM25.155 11.137a.107.107 0 0 0 .028.08.11.11 0 0 0 .077.036c.022.002.045-.004.064-.015s.035-.028.045-.048a.112.112 0 0 0-.018-.125.115.115 0 0 0-.057-.034.114.114 0 0 0-.14.106z"/><path fill="#e8f5e9" style="fill:var(--color10,#e8f5e9)" d="M27.9 12.992c.498.086.799.246.927.639.181.559.689 2.143.793 2.706.064.346.164.565-.129.792-.699.506-1.428.967-2.185 1.382-.665.348-1.668.417-1.668.417l.728-.44.13-.247 1.946-1.723-.735-2.171s-.185-1.116.194-1.356z"/><path fill="#4caf4f" style="fill:var(--color6,#4caf4f)" d="M27.029 17.904v.069a.191.191 0 0 1-.093.169l-1.814 1.101c-.029.017-.063.025-.096.025s-.067-.009-.096-.025l-3.417-1.871c-.03-.017-.054-.041-.072-.07s-.027-.062-.028-.096v-.046l3.611 1.98 2.005-1.236z"/><path fill="#fff" style="fill:var(--color7,#fff)" opacity=".25" d="M27.029 17.904v.069a.191.191 0 0 1-.093.169l-1.814 1.101c-.029.017-.063.025-.096.025s-.067-.009-.096-.025l-3.417-1.871c-.03-.017-.054-.041-.072-.07s-.027-.062-.028-.096v-.046l3.611 1.98 2.005-1.236z"/><path fill="#103e13" style="fill:var(--color2,#103e13)" opacity=".01" d="M27.029 17.904v.069a.191.191 0 0 1-.093.169l-1.814 1.101c-.029.017-.063.025-.096.025s-.067-.009-.096-.025l-3.417-1.871c-.03-.017-.054-.041-.072-.07s-.027-.062-.028-.096v-.046l3.611 1.98 2.005-1.236z"/><path fill="#4caf4f" style="fill:var(--color6,#4caf4f)" d="m21.412 17.16 1.974-1.198a.117.117 0 0 1 .115 0l3.516 1.927c.004.002.007.006.009.009s.003.008.003.013c0 .004-.001.009-.003.013s-.005.007-.009.009l-1.994 1.21-3.612-1.983z"/><path fill="#fff" style="fill:var(--color7,#fff)" opacity=".722" d="m21.412 17.16 1.974-1.198a.117.117 0 0 1 .115 0l3.516 1.927c.004.002.007.006.009.009s.003.008.003.013c0 .004-.001.009-.003.013s-.005.007-.009.009l-1.994 1.21-3.612-1.983z"/><path fill="#4caf4f" style="fill:var(--color6,#4caf4f)" d="M24.97 19.169a.23.23 0 0 1-.197-.011l-3.401-1.864a.23.23 0 0 1-.115-.16l-.415-2.184a.24.24 0 0 1 0-.038.22.22 0 0 1 .064-.163l3.53 1.938a.165.165 0 0 1 .084.116l.45 2.367z"/><path fill="#fff" style="fill:var(--color7,#fff)" opacity=".16" d="M24.97 19.169a.23.23 0 0 1-.197-.011l-3.401-1.864a.23.23 0 0 1-.115-.16l-.415-2.184a.24.24 0 0 1 0-.038.22.22 0 0 1 .064-.163l3.53 1.938a.165.165 0 0 1 .084.116l.45 2.367z"/><path fill="#4caf4f" style="fill:var(--color6,#4caf4f)" d="m25.023 19.14-.022.014a.301.301 0 0 1-.031.016l-.45-2.364c-.005-.024-.015-.047-.029-.068s-.034-.036-.055-.048l-3.534-1.938a.208.208 0 0 1 .046-.037l3.542 1.941c.022.012.041.029.055.049s.025.043.03.068l.45 2.367z"/><path fill="#fff" style="fill:var(--color7,#fff)" opacity=".36" d="m25.023 19.14-.022.014a.301.301 0 0 1-.031.016l-.45-2.364c-.005-.024-.015-.047-.029-.068s-.034-.036-.055-.048l-3.534-1.938a.208.208 0 0 1 .046-.037l3.542 1.941c.022.012.041.029.055.049s.025.043.03.068l.45 2.367z"/><path fill="#4caf4f" style="fill:var(--color6,#4caf4f)" d="m24.487 16.734.053-.032a.173.173 0 0 1 .034.071l.45 2.367-.022.014a.301.301 0 0 1-.031.016l-.45-2.364a.163.163 0 0 0-.033-.072z"/><path fill="#fff" style="fill:var(--color7,#fff)" opacity=".5" d="m24.487 16.734.053-.032a.173.173 0 0 1 .034.071l.45 2.367-.022.014a.301.301 0 0 1-.031.016l-.45-2.364a.163.163 0 0 0-.033-.072z"/><path fill="#103e13" style="fill:var(--color2,#103e13)" opacity=".1" d="m24.487 16.734.053-.032a.173.173 0 0 1 .034.071l.45 2.367-.022.014a.301.301 0 0 1-.031.016l-.45-2.364a.163.163 0 0 0-.033-.072z"/><path fill="#455a64" style="fill:var(--color5,#455a64)" d="M23.034 17.188a.747.747 0 0 0-.348-.428c-.164-.089-.275-.045-.247.102s.184.337.348.427c.165.09.275.045.247-.101z"/><path fill="#e8f5e9" style="fill:var(--color10,#e8f5e9)" d="M27.095 17.711c-.19.133-.447.026-.699.056s-.468.093-.671.087c-.203-.006-.302.035-.16.197s.549.069.659.118a.24.24 0 0 1 .05.374c-.119.138.678-.129.784-.292s.18-.519.036-.54z"/></symbol></defs></svg>