<svg aria-hidden="true" style="position: absolute; width: 0; height: 0; overflow: hidden;" version="1.1" xmlns="http://www.w3.org/2000/svg" xmlns:xlink="http://www.w3.org/1999/xlink">
<defs>

<symbol id="icon-logo" viewBox="0 0 47 32">
    <path fill="#263238" style="fill: var(--color1, #263238)" d="M25.048 17.512l-7.188 12.31-7.188-12.31h14.376zM26.974 16.412h-18.235l9.121 15.588 9.113-15.588z"></path>
    <path fill="#263238" style="fill: var(--color1, #263238)" d="M37.545 2.2l7.188 12.311h-14.376l7.188-12.311zM37.545 0l-9.121 15.588h18.243l-9.121-15.588z"></path>
    <path fill="#4caf4f" style="fill: var(--color2, #4caf4f)" d="M0 0l7.648 13.788 8.357-13.442-16.005-0.346z"></path>
    <path fill="#4caf4f" style="fill: var(--color2, #4caf4f)" d="M17.861 1.208l8.022 13.711h-16.060l8.038-13.711z"></path>
    <path fill="#4caf4f" style="fill: var(--color2, #4caf4f)" d="M27.949 17.912l8.030 14.088h-16.442l8.162-14.088h0.249z"></path>
    <path fill="#4caf4f" style="fill: var(--color2, #4caf4f)" d="M29.687 17.058l7.858 13.872 7.967-13.872h-15.826z"></path>
</symbol>

<symbol id="icon-logo_text" viewBox="0 0 163 32">
    <path d="M24.775 0.973v29.62h-5.409l-12.886-18.643h-0.217v18.643h-6.262v-29.62h5.496l12.785 18.628h0.26v-18.628h6.233z"></path>
    <path d="M39.957 31.027c-2.285 0-4.252-0.463-5.901-1.389-1.639-0.935-2.902-2.256-3.789-3.963-0.887-1.716-1.331-3.746-1.331-6.089 0-2.285 0.444-4.291 1.331-6.017s2.136-3.071 3.746-4.035c1.62-0.964 3.519-1.446 5.698-1.446 1.466 0 2.83 0.236 4.093 0.709 1.273 0.463 2.382 1.162 3.326 2.097 0.955 0.935 1.697 2.112 2.227 3.529 0.53 1.408 0.795 3.056 0.795 4.946v1.692h-18.758v-3.818h12.959c0-0.887-0.193-1.673-0.579-2.357s-0.921-1.22-1.605-1.605c-0.675-0.395-1.461-0.593-2.357-0.593-0.935 0-1.764 0.217-2.488 0.651-0.714 0.424-1.273 0.998-1.678 1.721-0.405 0.713-0.612 1.509-0.622 2.386v3.63c0 1.099 0.202 2.049 0.607 2.849 0.415 0.8 0.998 1.417 1.75 1.851s1.644 0.651 2.676 0.651c0.685 0 1.311-0.096 1.88-0.289s1.056-0.482 1.461-0.868c0.405-0.386 0.713-0.858 0.926-1.417l5.698 0.376c-0.289 1.369-0.882 2.565-1.779 3.587-0.887 1.012-2.034 1.803-3.442 2.372-1.398 0.559-3.013 0.839-4.845 0.839z"></path>
    <path d="M58.925 8.378l4.079 7.766 4.18-7.766h6.32l-6.436 11.107 6.61 11.108h-6.291l-4.382-7.68-4.31 7.68h-6.364l6.595-11.108-6.364-11.107h6.364z"></path>
    <path d="M86.404 31.027c-2.275 0-4.233-0.482-5.872-1.446-1.629-0.974-2.883-2.324-3.76-4.050-0.868-1.726-1.302-3.712-1.302-5.959 0-2.276 0.439-4.271 1.316-5.988 0.887-1.726 2.145-3.071 3.775-4.035 1.63-0.974 3.568-1.461 5.814-1.461 1.938 0 3.635 0.352 5.091 1.056s2.608 1.692 3.457 2.965c0.848 1.273 1.316 2.767 1.403 4.483h-5.814c-0.164-1.109-0.598-2.001-1.302-2.676-0.694-0.685-1.605-1.027-2.733-1.027-0.955 0-1.789 0.26-2.502 0.781-0.704 0.511-1.253 1.258-1.649 2.242s-0.593 2.174-0.593 3.572c0 1.417 0.193 2.623 0.578 3.616 0.395 0.993 0.95 1.75 1.663 2.271s1.547 0.781 2.502 0.781c0.704 0 1.335-0.145 1.895-0.434 0.569-0.289 1.037-0.709 1.403-1.258 0.376-0.559 0.622-1.229 0.738-2.010h5.814c-0.096 1.697-0.559 3.191-1.388 4.483-0.82 1.282-1.952 2.285-3.399 3.008s-3.158 1.085-5.134 1.085z"></path>
    <path d="M110.395 31.027c-2.285 0-4.252-0.463-5.901-1.389-1.639-0.935-2.902-2.256-3.789-3.963-0.887-1.716-1.331-3.746-1.331-6.089 0-2.285 0.444-4.291 1.331-6.017s2.136-3.071 3.746-4.035c1.62-0.964 3.519-1.446 5.698-1.446 1.465 0 2.83 0.236 4.093 0.709 1.273 0.463 2.382 1.162 3.326 2.097 0.955 0.935 1.697 2.112 2.227 3.529 0.53 1.408 0.795 3.056 0.795 4.946v1.692h-18.758v-3.818h12.959c0-0.887-0.193-1.673-0.578-2.357s-0.921-1.22-1.605-1.605c-0.675-0.395-1.461-0.593-2.357-0.593-0.935 0-1.764 0.217-2.488 0.651-0.713 0.424-1.273 0.998-1.678 1.721-0.405 0.713-0.612 1.509-0.622 2.386v3.63c0 1.099 0.202 2.049 0.607 2.849 0.415 0.8 0.998 1.417 1.75 1.851s1.644 0.651 2.676 0.651c0.684 0 1.311-0.096 1.88-0.289s1.056-0.482 1.461-0.868c0.405-0.386 0.713-0.858 0.926-1.417l5.698 0.376c-0.289 1.369-0.882 2.565-1.779 3.587-0.887 1.012-2.034 1.803-3.442 2.372-1.398 0.559-3.013 0.839-4.845 0.839z"></path>
    <path d="M130.773 17.75v12.843h-6.161v-22.215h5.872v3.919h0.26c0.492-1.292 1.316-2.314 2.473-3.066 1.157-0.762 2.56-1.143 4.209-1.143 1.543 0 2.888 0.337 4.035 1.012s2.039 1.639 2.676 2.893c0.636 1.244 0.954 2.729 0.954 4.455v14.145h-6.161v-13.046c0.010-1.359-0.337-2.42-1.041-3.182-0.704-0.771-1.673-1.157-2.907-1.157-0.829 0-1.562 0.178-2.198 0.535-0.627 0.357-1.118 0.877-1.475 1.562-0.347 0.675-0.525 1.49-0.535 2.444z"></path>
    <path d="M161.763 8.378v4.628h-13.377v-4.628h13.377zM151.423 3.056h6.16v20.711c0 0.569 0.087 1.012 0.26 1.331 0.175 0.308 0.415 0.525 0.724 0.651 0.317 0.125 0.684 0.188 1.098 0.188 0.289 0 0.579-0.024 0.868-0.072 0.289-0.058 0.511-0.101 0.665-0.13l0.969 4.585c-0.308 0.096-0.742 0.207-1.3 0.333-0.56 0.135-1.239 0.217-2.039 0.246-1.485 0.058-2.787-0.14-3.905-0.593-1.108-0.453-1.972-1.157-2.589-2.112s-0.921-2.16-0.911-3.616v-21.521z"></path>
</symbol>

<symbol id="icon-full_logo" viewBox="0 0 207 32">
    <path fill="#263238" style="fill: var(--color1, #263238)" d="M25.048 17.512l-7.188 12.31-7.188-12.31h14.376zM26.974 16.412h-18.235l9.121 15.588 9.113-15.588z"></path>
    <path fill="#263238" style="fill: var(--color1, #263238)" d="M37.545 2.2l7.188 12.311h-14.376l7.188-12.311zM37.545 0l-9.121 15.588h18.243l-9.121-15.588z"></path>
    <path fill="#4caf4f" style="fill: var(--color2, #4caf4f)" d="M0 0l7.648 13.788 8.357-13.442-16.005-0.346z"></path>
    <path fill="#4caf4f" style="fill: var(--color2, #4caf4f)" d="M17.861 1.208l8.022 13.711h-16.060l8.038-13.711z"></path>
    <path fill="#4caf4f" style="fill: var(--color2, #4caf4f)" d="M27.949 17.912l8.030 14.088h-16.442l8.162-14.088h0.249z"></path>
    <path fill="#4caf4f" style="fill: var(--color2, #4caf4f)" d="M29.687 17.058l7.858 13.872 7.967-13.872h-15.826z"></path>
    <path fill="#263238" style="fill: var(--color1, #263238)" d="M80.044 2.225v27.152h-4.958l-11.813-17.089h-0.199v17.089h-5.741v-27.152h5.038l11.72 17.076h0.239v-17.076h5.714z"></path>
    <path fill="#263238" style="fill: var(--color1, #263238)" d="M93.961 29.775c-2.095 0-3.898-0.424-5.409-1.273-1.503-0.857-2.66-2.068-3.473-3.633-0.813-1.573-1.22-3.434-1.22-5.581 0-2.095 0.407-3.933 1.22-5.515s1.958-2.815 3.434-3.699c1.485-0.884 3.226-1.326 5.223-1.326 1.343 0 2.594 0.217 3.752 0.65 1.167 0.424 2.183 1.065 3.049 1.922 0.875 0.857 1.556 1.936 2.042 3.235 0.486 1.29 0.729 2.802 0.729 4.534v1.551h-17.195v-3.5h11.879c0-0.813-0.177-1.533-0.53-2.161s-0.844-1.118-1.472-1.472c-0.619-0.362-1.339-0.544-2.161-0.544-0.857 0-1.617 0.199-2.28 0.597-0.654 0.389-1.167 0.915-1.538 1.578-0.371 0.654-0.561 1.383-0.57 2.187v3.328c0 1.008 0.186 1.878 0.557 2.612 0.38 0.734 0.915 1.299 1.604 1.697s1.507 0.597 2.453 0.597c0.628 0 1.202-0.088 1.723-0.265s0.968-0.442 1.339-0.795c0.371-0.354 0.654-0.787 0.849-1.299l5.223 0.345c-0.265 1.255-0.809 2.351-1.631 3.288-0.813 0.928-1.865 1.653-3.155 2.174-1.282 0.513-2.762 0.769-4.441 0.769z"></path>
    <path fill="#263238" style="fill: var(--color1, #263238)" d="M111.348 9.013l3.739 7.119 3.831-7.119h5.793l-5.9 10.182 6.059 10.182h-5.767l-4.017-7.040-3.951 7.040h-5.833l6.045-10.182-5.833-10.182h5.833z"></path>
    <path fill="#263238" style="fill: var(--color1, #263238)" d="M136.537 29.775c-2.085 0-3.88-0.442-5.383-1.326-1.494-0.893-2.643-2.13-3.447-3.712-0.795-1.582-1.193-3.403-1.193-5.462 0-2.086 0.402-3.915 1.206-5.489 0.813-1.582 1.967-2.815 3.46-3.699 1.494-0.893 3.271-1.339 5.329-1.339 1.777 0 3.332 0.323 4.667 0.968s2.391 1.551 3.169 2.718c0.777 1.167 1.205 2.537 1.285 4.11h-5.329c-0.151-1.016-0.548-1.834-1.193-2.453-0.636-0.628-1.472-0.941-2.505-0.941-0.875 0-1.64 0.239-2.293 0.716-0.645 0.468-1.149 1.153-1.512 2.055s-0.544 1.993-0.544 3.275c0 1.299 0.177 2.404 0.53 3.314 0.362 0.91 0.871 1.604 1.525 2.081 0.653 0.477 1.419 0.716 2.293 0.716 0.645 0 1.224-0.133 1.736-0.398 0.521-0.265 0.951-0.65 1.287-1.153 0.344-0.513 0.569-1.127 0.676-1.843h5.329c-0.088 1.555-0.512 2.925-1.272 4.11-0.752 1.175-1.791 2.095-3.116 2.757s-2.895 0.994-4.707 0.994z"></path>
    <path fill="#263238" style="fill: var(--color1, #263238)" d="M158.528 29.775c-2.095 0-3.897-0.424-5.409-1.273-1.501-0.857-2.66-2.068-3.473-3.633-0.812-1.573-1.219-3.434-1.219-5.581 0-2.095 0.407-3.933 1.219-5.515 0.813-1.582 1.959-2.815 3.435-3.699 1.484-0.884 3.225-1.326 5.223-1.326 1.344 0 2.595 0.217 3.752 0.65 1.167 0.424 2.184 1.065 3.049 1.922 0.875 0.857 1.556 1.936 2.041 3.235 0.487 1.29 0.729 2.802 0.729 4.534v1.551h-17.195v-3.5h11.879c0-0.813-0.177-1.533-0.531-2.161s-0.844-1.118-1.471-1.472c-0.619-0.362-1.34-0.544-2.161-0.544-0.857 0-1.617 0.199-2.28 0.597-0.655 0.389-1.167 0.915-1.539 1.578-0.371 0.654-0.561 1.383-0.569 2.187v3.328c0 1.008 0.185 1.878 0.556 2.612 0.38 0.734 0.915 1.299 1.604 1.697s1.508 0.597 2.453 0.597c0.628 0 1.201-0.088 1.724-0.265 0.521-0.177 0.967-0.442 1.339-0.795 0.371-0.354 0.653-0.787 0.848-1.299l5.224 0.345c-0.265 1.255-0.809 2.351-1.631 3.288-0.813 0.928-1.865 1.653-3.156 2.174-1.281 0.513-2.761 0.769-4.441 0.769z"></path>
    <path fill="#263238" style="fill: var(--color1, #263238)" d="M177.208 17.604v11.773h-5.648v-20.364h5.383v3.593h0.239c0.451-1.184 1.207-2.121 2.268-2.811 1.060-0.698 2.347-1.047 3.857-1.047 1.415 0 2.647 0.309 3.699 0.928s1.869 1.503 2.453 2.652c0.583 1.14 0.875 2.501 0.875 4.083v12.966h-5.648v-11.958c0.009-1.246-0.309-2.218-0.955-2.917-0.645-0.707-1.533-1.061-2.664-1.061-0.76 0-1.432 0.163-2.016 0.491-0.575 0.327-1.025 0.804-1.352 1.432-0.317 0.619-0.481 1.366-0.491 2.241z"></path>
    <path fill="#263238" style="fill: var(--color1, #263238)" d="M205.616 9.013v4.242h-12.263v-4.242h12.263zM196.137 4.134h5.647v18.985c0 0.521 0.080 0.928 0.239 1.22 0.16 0.283 0.38 0.482 0.664 0.597 0.291 0.115 0.627 0.172 1.007 0.172 0.265 0 0.531-0.022 0.796-0.066 0.265-0.053 0.468-0.093 0.609-0.119l0.888 4.203c-0.283 0.088-0.68 0.19-1.192 0.305-0.513 0.124-1.136 0.199-1.869 0.225-1.361 0.053-2.555-0.128-3.58-0.544-1.016-0.415-1.808-1.061-2.373-1.936s-0.844-1.98-0.835-3.314v-19.727z"></path>
</symbol>

</defs>
</svg>
